<svg xmlns="http://www.w3.org/2000/svg" version="1.1" viewBox="-5.0 -10.0 110.0 135.0">
 <path d="m45.395 74.496h13.176v-0.86328c0-0.47656 0.34375-0.87109 0.80078-0.94922l4.9102-1.2227c0.066406-0.1875 0.13672-0.36719 0.20703-0.54297 0.074219-0.17578 0.15234-0.35547 0.23828-0.53125l-2.6445-4.3984c-0.23047-0.38672-0.16016-0.87109 0.14453-1.1758l2.582-2.5859c0.33984-0.33984 0.86719-0.37109 1.2422-0.10156l4.332 2.6055c0.17969-0.085938 0.35547-0.16406 0.53125-0.23828 0.17578-0.074219 0.35547-0.14063 0.54297-0.20703l1.2383-4.9766c0.10938-0.44141 0.50391-0.73438 0.93359-0.73438h0.86328v-13.18l0.003906-9.1953v-7.207c0-0.95703-0.39453-1.8281-1.0234-2.4609-0.63281-0.63281-1.5039-1.0234-2.4609-1.0234h-42.023c-0.95703 0-1.8281 0.39453-2.4609 1.0234-0.63281 0.63281-1.0234 1.5039-1.0234 2.4609v42.027c0 0.95703 0.39453 1.8281 1.0234 2.4609 0.63281 0.63281 1.5039 1.0234 2.4609 1.0234h7.207zm10.172 1.9336v17.027c0 0.53516-0.43359 0.96484-0.96484 0.96484-0.53516 0-0.96484-0.43359-0.96484-0.96484v-17.027h-7.2734v17.027c0 0.53516-0.43359 0.96484-0.96484 0.96484-0.53516 0-0.96484-0.43359-0.96484-0.96484v-17.027h-7.2734v17.027c0 0.53516-0.43359 0.96484-0.96484 0.96484-0.53516 0-0.96484-0.43359-0.96484-0.96484l-0.003907-17.027h-6.2383c-1.4922 0-2.8438-0.60938-3.8242-1.5898-0.98047-0.98047-1.5898-2.3359-1.5898-3.8242v-6.2383l-17.031-0.003906c-0.53516 0-0.96484-0.43359-0.96484-0.96484 0-0.53516 0.43359-0.96484 0.96484-0.96484h17.027v-7.2734h-17.027c-0.53516 0-0.96484-0.43359-0.96484-0.96484 0-0.53516 0.43359-0.96484 0.96484-0.96484h17.027v-7.2734l-17.027-0.003907c-0.53516 0-0.96484-0.43359-0.96484-0.96484 0-0.53516 0.43359-0.96484 0.96484-0.96484h17.027v-7.2734h-17.027c-0.53516 0-0.96484-0.43359-0.96484-0.96484 0-0.53516 0.43359-0.96484 0.96484-0.96484h17.027v-6.2383c0-1.4922 0.60938-2.8438 1.5898-3.8242 0.98047-0.98047 2.3359-1.5898 3.8242-1.5898h6.2383l0.003906-17.035c0-0.53516 0.43359-0.96484 0.96484-0.96484 0.53516 0 0.96484 0.43359 0.96484 0.96484v17.027h7.2734v-17.027c0-0.53516 0.43359-0.96484 0.96484-0.96484 0.53516 0 0.96484 0.43359 0.96484 0.96484v17.027h7.2734l0.003907-17.027c0-0.53516 0.43359-0.96484 0.96484-0.96484 0.53516 0 0.96484 0.43359 0.96484 0.96484v17.027h7.2734v-17.027c0-0.53516 0.43359-0.96484 0.96484-0.96484 0.53516 0 0.96484 0.43359 0.96484 0.96484v17.027h6.2383c1.4922 0 2.8438 0.60938 3.8242 1.5898 0.98047 0.98047 1.5898 2.3359 1.5898 3.8242v6.2383h17.027c0.53516 0 0.96484 0.43359 0.96484 0.96484 0 0.53516-0.43359 0.96484-0.96484 0.96484l-17.02 0.007812v7.2734h17.027c0.53516 0 0.96484 0.43359 0.96484 0.96484 0 0.53516-0.43359 0.96484-0.96484 0.96484h-17.027v7.2734h17.027c0.53516 0 0.96484 0.43359 0.96484 0.96484 0 0.53516-0.43359 0.96484-0.96484 0.96484h-17.027v3.0039h0.86328c0.47656 0 0.87109 0.34375 0.94922 0.80078l1.2227 4.9102c0.1875 0.066406 0.36719 0.13672 0.54297 0.20703 0.17578 0.074219 0.35156 0.15234 0.53125 0.23828l4.3984-2.6445c0.38672-0.23047 0.87109-0.16016 1.1758 0.14453l2.5859 2.582c0.33984 0.33984 0.37109 0.86719 0.10156 1.2422l-2.6055 4.332c0.085938 0.17969 0.16406 0.35547 0.23828 0.53125 0.070312 0.17578 0.14062 0.35547 0.20703 0.54297l4.9766 1.2383c0.44141 0.10938 0.73437 0.50391 0.73437 0.93359l0.003907 3.6562c0 0.47656-0.34375 0.87109-0.80078 0.94922l-4.9102 1.2227c-0.066406 0.1875-0.13672 0.36719-0.20703 0.54297-0.074219 0.17578-0.15234 0.35547-0.23828 0.53125l2.6445 4.3984c0.23047 0.38672 0.16016 0.87109-0.14453 1.1758l-2.582 2.5859c-0.33984 0.33984-0.86719 0.37109-1.2422 0.10156l-4.332-2.6055c-0.17969 0.085938-0.35547 0.16406-0.53125 0.23828s-0.35547 0.14062-0.54297 0.20703l-1.2383 4.9727c-0.10938 0.44141-0.50391 0.73438-0.93359 0.73438l-3.6562 0.003906c-0.47656 0-0.87109-0.34375-0.94922-0.80078l-1.2227-4.9102c-0.1875-0.066406-0.36719-0.13672-0.54297-0.20703-0.17578-0.074219-0.35547-0.15234-0.53125-0.23828l-4.3984 2.6445c-0.38672 0.23047-0.87109 0.16016-1.1758-0.14453l-2.5859-2.582c-0.33984-0.33984-0.37109-0.86719-0.10156-1.2422l2.6055-4.332c-0.085937-0.17969-0.16406-0.35547-0.23828-0.53125-0.070312-0.17578-0.14062-0.35547-0.20703-0.54297l-4.9766-1.2383c-0.44141-0.10938-0.73438-0.50391-0.73438-0.93359v-0.86328l-3.0156 0.003906zm-25.18-17.07c-0.69922-0.17578-1.3281-0.53906-1.8242-1.0352-0.71484-0.71484-1.1562-1.6992-1.1562-2.7891s0.44141-2.0742 1.1562-2.7891 1.6992-1.1562 2.7891-1.1562c1.0898 0 2.0742 0.44141 2.7891 1.1562s1.1562 1.6992 1.1562 2.7891-0.44141 2.0742-1.1562 2.7891c-0.49609 0.49609-1.1211 0.85938-1.8242 1.0352v7.6992c0 0.4375 0.14844 0.82812 0.38672 1.1016 0.20703 0.23828 0.48047 0.38281 0.77734 0.38281h22.055c0.53516 0 0.96484 0.43359 0.96484 0.96484 0 0.53516-0.43359 0.96484-0.96484 0.96484l-22.055 0.003906c-0.87891 0-1.668-0.40234-2.2305-1.0547-0.53125-0.61328-0.86328-1.4492-0.86328-2.3633zm-0.45703-2.4023c-0.36328-0.36328-0.58984-0.86719-0.58984-1.4258 0-0.55469 0.22656-1.0586 0.58984-1.4258 0.36328-0.36328 0.86719-0.58984 1.4258-0.58984 0.55469 0 1.0586 0.22656 1.4258 0.58984 0.36328 0.36328 0.58984 0.86719 0.58984 1.4258 0 0.55469-0.22656 1.0586-0.58984 1.4258-0.36328 0.36328-0.86719 0.58984-1.4258 0.58984-0.55859 0-1.0625-0.22656-1.4258-0.58984zm9.1484-25.504c-0.53516 0-0.96484-0.43359-0.96484-0.96484 0-0.53516 0.43359-0.96484 0.96484-0.96484h27.441c0.87891 0 1.668 0.40234 2.2305 1.0547 0.53125 0.61328 0.86328 1.4492 0.86328 2.3633v7.6992c0.69922 0.17578 1.3281 0.53906 1.8242 1.0352 0.71484 0.71484 1.1562 1.6992 1.1562 2.7891s-0.44141 2.0742-1.1562 2.7891-1.6992 1.1562-2.7891 1.1562c-1.0898 0-2.0742-0.44141-2.7891-1.1562s-1.1562-1.6992-1.1562-2.7891 0.44141-2.0742 1.1562-2.7891c0.49609-0.49609 1.1211-0.85938 1.8242-1.0352v-7.6992c0-0.4375-0.14844-0.82812-0.38672-1.1016-0.20703-0.23828-0.48047-0.38281-0.77734-0.38281zm43.648 44.012c0 2.0039-0.8125 3.8203-2.1289 5.1328-1.3164 1.3164-3.1289 2.1289-5.1367 2.1289-2.0039 0-3.8203-0.8125-5.1328-2.1289-1.3125-1.3125-2.1289-3.1289-2.1289-5.1328s0.8125-3.8203 2.1289-5.1328c1.3164-1.3164 3.1289-2.1289 5.1328-2.1289 2.0039 0 3.8203 0.8125 5.1367 2.1289 1.3125 1.3125 2.1289 3.125 2.1289 5.1328zm-3.4961 3.7656c-0.96484 0.96484-2.2969 1.5625-3.7695 1.5625-1.4727 0-2.8047-0.59766-3.7695-1.5625-0.96484-0.96484-1.5625-2.2969-1.5625-3.7695 0-1.4727 0.59766-2.8047 1.5625-3.7695s2.2969-1.5625 3.7695-1.5625c1.4727 0 2.8047 0.59766 3.7695 1.5625 0.96484 0.96484 1.5625 2.2969 1.5625 3.7695 0 1.4727-0.59766 2.8086-1.5625 3.7695zm-18.727-3.7734v-1.0703l4.7539-1.1836c0.35938-0.089844 0.62109-0.37109 0.70703-0.70703 0.085937-0.27344 0.1875-0.55078 0.30469-0.83984 0.12891-0.30859 0.26172-0.59375 0.40234-0.85938 0.16406-0.30859 0.14453-0.66797-0.023437-0.94531l-2.5273-4.207 1.5234-1.5234 4.2031 2.5273c0.3125 0.1875 0.6875 0.17578 0.98047 0.003906 0.25781-0.13672 0.53125-0.26562 0.82812-0.38672 0.30469-0.125 0.60156-0.23438 0.89062-0.32031 0.33594-0.10156 0.57422-0.37109 0.65625-0.69141l1.1836-4.7539h2.1484l1.1836 4.7578c0.089844 0.35938 0.37109 0.62109 0.70703 0.70703 0.27344 0.085937 0.55078 0.1875 0.83984 0.30469 0.30859 0.12891 0.59375 0.26172 0.85938 0.40234 0.30859 0.16406 0.66797 0.14453 0.94531-0.023437l4.207-2.5273 1.5195 1.5234-2.5273 4.207c-0.1875 0.3125-0.17578 0.6875-0.003906 0.98047 0.13672 0.25781 0.26562 0.53516 0.38672 0.82812 0.125 0.30469 0.23438 0.60156 0.32031 0.89062 0.10156 0.33594 0.37109 0.57422 0.69141 0.65625l4.7539 1.1836v2.1484l-4.7539 1.1836c-0.35937 0.089844-0.62109 0.37109-0.70703 0.70703-0.085937 0.27344-0.1875 0.55078-0.30469 0.83984-0.12891 0.30859-0.26172 0.59375-0.40234 0.85938-0.16406 0.30859-0.14453 0.66797 0.023438 0.94531l2.5273 4.207-1.5195 1.5234-4.2031-2.5273c-0.3125-0.1875-0.6875-0.17578-0.98047-0.003906-0.25781 0.13672-0.53125 0.26562-0.82812 0.38672-0.30469 0.125-0.60156 0.23438-0.89062 0.32031-0.33594 0.10156-0.57422 0.37109-0.65625 0.69141l-1.1836 4.7539h-2.1484l-1.1836-4.7578c-0.089843-0.35938-0.37109-0.62109-0.70703-0.70703-0.27344-0.085938-0.55078-0.1875-0.83984-0.30469-0.30859-0.12891-0.59375-0.26172-0.85938-0.40234-0.30859-0.16406-0.66797-0.14453-0.94531 0.023438l-4.207 2.5273-1.5234-1.5234 2.5273-4.2031c0.1875-0.3125 0.17578-0.6875 0.003906-0.98047-0.13672-0.25781-0.26562-0.53125-0.38672-0.82812-0.125-0.30469-0.23438-0.60156-0.32031-0.89062-0.10156-0.33594-0.37109-0.57422-0.69141-0.65625l-4.7539-1.1836zm9.5664-32.414c0.36328 0.36328 0.58984 0.86719 0.58984 1.4258 0 0.55469-0.22656 1.0586-0.58984 1.4258-0.36328 0.36328-0.86719 0.58984-1.4258 0.58984-0.55469 0-1.0586-0.22656-1.4258-0.58984-0.36328-0.36328-0.58984-0.86719-0.58984-1.4258 0-0.55469 0.22656-1.0586 0.58984-1.4258 0.36328-0.36328 0.86719-0.58984 1.4258-0.58984 0.55859 0 1.0625 0.22656 1.4258 0.58984zm-1.4219-0.58984zm-25.52-2.8672h13.742c0.97656 0 1.8633 0.39844 2.5039 1.0391 0.64062 0.64453 1.0391 1.5273 1.0391 2.5039v13.742c0 0.97656-0.39844 1.8633-1.0391 2.5039-0.64062 0.64453-1.5273 1.0391-2.5039 1.0391h-13.742c-0.97656 0-1.8633-0.39844-2.5039-1.0391-0.64453-0.64062-1.0391-1.5273-1.0391-2.5039v-13.742c0-0.97656 0.39844-1.8633 1.0391-2.5039s1.5273-1.0391 2.5039-1.0391zm13.742 1.9297c0.44141 0 0.84766 0.18359 1.1367 0.47656 0.29297 0.29297 0.47656 0.69531 0.47656 1.1406v13.742c0 0.44141-0.18359 0.84766-0.47656 1.1406-0.29297 0.29297-0.69531 0.47656-1.1367 0.47656l-13.742-0.007813c-0.44141 0-0.84766-0.18359-1.1367-0.47656-0.29297-0.29297-0.47656-0.69531-0.47656-1.1406v-13.738c0-0.44141 0.18359-0.84766 0.47656-1.1406 0.29297-0.29297 0.69531-0.47656 1.1367-0.47656z" fill-rule="evenodd"/>
<text x="0.0" y="117.5" font-size="5.0" font-weight="bold" font-family="Arbeit Regular, Helvetica, Arial-Unicode, Arial, Sans-serif" fill="#000000">Created by Dava Arya Ditya</text><text x="0.0" y="122.5" font-size="5.0" font-weight="bold" font-family="Arbeit Regular, Helvetica, Arial-Unicode, Arial, Sans-serif" fill="#000000">from Noun Project</text></svg>