<svg xmlns="http://www.w3.org/2000/svg" version="1.1" viewBox="-5.0 -10.0 110.0 135.0">
 <path d="m64.238 77.152h-0.070312l-0.16406-0.027344-0.1875-0.0625-0.15625-0.09375-0.078125-0.0625-0.0625-0.0625-0.0625-0.078125-0.10547-0.17578-0.007812-0.023438-0.011719-0.027344-0.039062-0.11719-0.027344-0.16406v-9.1055c-0.30469 0.28906-0.78125 0.35547-1.1602 0.12891l-5.6758-3.4141c-0.26172 0.12891-0.52344 0.24609-0.78125 0.35156-0.25781 0.10547-0.52344 0.20703-0.80078 0.30469l-1.582 6.3594c-0.078125 0.45703-0.47656 0.80078-0.95703 0.80078h-1.3398v13.184c0.85156 0.1875 1.6094 0.61719 2.2031 1.2109 0.8125 0.8125 1.3164 1.9336 1.3164 3.1719s-0.50391 2.3633-1.3164 3.1719c-0.8125 0.8125-1.9336 1.3164-3.1719 1.3164s-2.3594-0.50391-3.1719-1.3164-1.3164-1.9336-1.3164-3.1719 0.50391-2.3594 1.3164-3.1719c0.59375-0.59375 1.3516-1.0234 2.2031-1.2109v-13.191h-1.3398c-0.43359 0-0.83203-0.29297-0.94141-0.73828l-1.5977-6.4219c-0.27734-0.097656-0.54297-0.19531-0.80078-0.30469-0.25781-0.10938-0.51953-0.22656-0.78125-0.35156l-5.6094 3.3711c-0.37109 0.26562-0.88672 0.23828-1.2266-0.082031v9.1055l-0.015625 0.09375c0 0.007813-0.003906 0.015625-0.003906 0.023438l-0.003906 0.023437c-0.003907 0.007813-0.003907 0.015625-0.003907 0.023438l-0.03125 0.09375-0.007812 0.027343-0.015625 0.046876-0.10547 0.17578-0.0625 0.078125-0.078125 0.078125-0.058594 0.046875-0.15625 0.09375-0.019531 0.007812-0.16406 0.054688-0.16406 0.027344h-7.9922c-0.19531 0.81641-0.61719 1.543-1.1914 2.1172-0.8125 0.8125-1.9336 1.3164-3.1719 1.3164s-2.3633-0.50391-3.1719-1.3164c-0.8125-0.8125-1.3164-1.9336-1.3164-3.1719s0.50391-2.3633 1.3164-3.1719c0.8125-0.8125 1.9336-1.3164 3.1719-1.3164s2.3594 0.50391 3.1719 1.3164c0.61328 0.61328 1.0508 1.4023 1.2266 2.2891h6.9141v-10.004l-1.3477-1.3477c-0.30469-0.30469-0.37891-0.79297-0.14453-1.1797l3.4141-5.6758c-0.12891-0.26172-0.24609-0.52344-0.35156-0.78125-0.10547-0.25781-0.20703-0.52344-0.30469-0.80078l-6.3594-1.582c-0.45703-0.078125-0.80078-0.47656-0.80078-0.95703v-0.72266c-0.66016 0.29297-1.3438 0.53906-2.0547 0.73438-1.1914 0.32422-2.4297 0.50391-3.7031 0.51172v11.875 0.023438l-0.027344 0.16406-0.054688 0.16406-0.10547 0.17578-0.027344 0.023437-0.046875 0.058594-0.0625 0.0625-0.078125 0.0625-0.15625 0.09375-0.019532 0.007813-0.046874 0.015624-0.015626 0.011719-0.09375 0.03125-0.16406 0.027344h-7.9922c-0.19531 0.81641-0.61719 1.543-1.1914 2.1172-0.8125 0.8125-1.9336 1.3164-3.1719 1.3164-1.2422 0-2.3672-0.5-3.1797-1.3125s-1.3164-1.9336-1.3164-3.1719c0-1.2383 0.50391-2.3594 1.3164-3.1719s1.9336-1.3164 3.1719-1.3164 2.3633 0.50391 3.1719 1.3164c0.61328 0.61328 1.0508 1.4023 1.2266 2.2891h6.9141l0.003906-10.98c-3.2188-0.41406-6.1055-1.8984-8.2891-4.082-2.5977-2.5977-4.1992-6.1836-4.1992-10.145 0-3.0742 0.96875-5.9219 2.6172-8.2578 1.6953-2.4023 4.1094-4.2578 6.9258-5.2578 0.042969-0.015625 0.078126-0.042969 0.097657-0.074219 0.019531-0.035156 0.027343-0.078125 0.019531-0.12891-0.058594-0.40234-0.10547-0.81641-0.13672-1.2383s-0.046875-0.83594-0.046875-1.2461c0-4.582 1.8555-8.7266 4.8594-11.727 3.0039-3 7.1484-4.8594 11.73-4.8594 3.5586 0 6.8555 1.1211 9.5586 3.0312 2.7773 1.9648 4.9258 4.7578 6.082 8.0234 0.015625 0.046875 0.046875 0.085937 0.085937 0.10547 0.039063 0.019531 0.085938 0.027344 0.13672 0.015625 0.60547-0.14453 1.2109-0.25781 1.8086-0.32422 0.60938-0.070312 1.2227-0.10938 1.8438-0.10938 3.2578 0 6.2852 1.0039 8.7891 2.7188 2.5742 1.7656 4.5898 4.2852 5.7344 7.2383 0.011719 0.03125 0.027344 0.054688 0.042969 0.070313 0.019531 0.015625 0.042969 0.03125 0.074219 0.039062 0.03125 0.011719 0.058594 0.011719 0.085938 0.011719 0.019531-0.003906 0.042968-0.015625 0.074218-0.035156 1.1445-0.75 2.4062-1.3438 3.7539-1.7422 1.3008-0.38672 2.6797-0.59766 4.0977-0.59766 3.9609 0 7.5469 1.6055 10.145 4.1992 2.5977 2.5977 4.1992 6.1836 4.1992 10.145s-1.6055 7.5469-4.1992 10.145c-2.1836 2.1836-5.0703 3.668-8.2891 4.082v10.977h6.9141c0.17578-0.88281 0.61328-1.6758 1.2266-2.2891 0.8125-0.8125 1.9336-1.3164 3.1719-1.3164 1.2383 0 2.3594 0.50391 3.1719 1.3164s1.3164 1.9336 1.3164 3.1719c0 1.2383-0.50391 2.3633-1.3164 3.1719-0.8125 0.8125-1.9336 1.3164-3.1719 1.3164-1.2383 0-2.3633-0.50391-3.1719-1.3164-0.57422-0.57422-0.99219-1.3047-1.1914-2.1172h-7.9922l-0.16406-0.027344-0.070312-0.023437-0.035156-0.007813-0.070313-0.023437-0.019531-0.007813-0.15625-0.09375-0.078125-0.0625-0.0625-0.0625-0.03125-0.039062-0.007813-0.023438-0.015625-0.019531-0.10547-0.17578-0.054687-0.16406-0.027344-0.16406v-0.023438-11.879c-1.2734-0.007812-2.5117-0.18359-3.7031-0.51172-0.71094-0.19531-1.3945-0.44141-2.0547-0.73438v0.72266c0 0.43359-0.29297 0.83203-0.73828 0.94141l-6.4219 1.5977c-0.097656 0.27734-0.19531 0.54297-0.30469 0.80078-0.10938 0.25781-0.22656 0.51953-0.35156 0.78125l3.3711 5.6094c0.26953 0.37891 0.23828 0.91016-0.10547 1.25l-1.3516 1.3477v10.004h6.9141c0.17578-0.88281 0.61328-1.6758 1.2266-2.2891 0.8125-0.8125 1.9336-1.3164 3.1719-1.3164s2.3633 0.50391 3.1719 1.3164c0.8125 0.8125 1.3164 1.9336 1.3164 3.1719 0 1.2383-0.50391 2.3594-1.3164 3.1719s-1.9336 1.3164-3.1719 1.3164-2.3633-0.50391-3.1719-1.3164c-0.57422-0.57422-0.99219-1.3047-1.1914-2.1172zm10.48 0.75c0.46094 0.46094 1.0977 0.74609 1.8008 0.74609s1.3398-0.28516 1.8008-0.74609c0.46094-0.46094 0.74609-1.0977 0.74609-1.8008 0-0.70312-0.28516-1.3398-0.74609-1.8008-0.46094-0.46094-1.0977-0.74609-1.8008-0.74609s-1.3398 0.28516-1.8008 0.74609c-0.46094 0.46094-0.74609 1.0977-0.74609 1.8008 0 0.70313 0.28516 1.3398 0.74609 1.8008zm-24.719-20.336c1.9297 0 3.6797-0.78125 4.9414-2.0469 1.2656-1.2656 2.0469-3.0117 2.0469-4.9414s-0.78125-3.6797-2.0469-4.9453c-1.2656-1.2656-3.0117-2.0469-4.9414-2.0469s-3.6797 0.78125-4.9414 2.0469c-1.2656 1.2656-2.0469 3.0117-2.0469 4.9453 0 1.9297 0.78125 3.6797 2.0469 4.9414 1.2617 1.2656 3.0117 2.0469 4.9414 2.0469zm6.3164-0.67969c1.6172-1.6172 2.6172-3.8477 2.6172-6.3125 0-2.4648-1-4.6992-2.6172-6.3164-1.6172-1.6172-3.8477-2.6172-6.3164-2.6172-2.4648 0-4.6992 1-6.3125 2.6172-1.6172 1.6172-2.6172 3.8477-2.6172 6.3164 0 2.4648 1 4.6992 2.6172 6.3125 1.6172 1.6172 3.8477 2.6172 6.3125 2.6172s4.6992-1 6.3164-2.6172zm-6.3164 29.805c-0.70312 0-1.3398 0.28516-1.8008 0.74609-0.46094 0.46094-0.74609 1.0977-0.74609 1.8008s0.28516 1.3398 0.74609 1.8008c0.46094 0.46094 1.0977 0.74609 1.8008 0.74609s1.3398-0.28516 1.8008-0.74609c0.46094-0.46094 0.74609-1.0977 0.74609-1.8008s-0.28516-1.3398-0.74609-1.8008c-0.46094-0.46094-1.0977-0.74609-1.8008-0.74609zm-40.113-18.992c0.70312 0 1.3398-0.28516 1.8008-0.74609s0.74609-1.0977 0.74609-1.8008-0.28516-1.3398-0.74609-1.8008c-0.46094-0.46094-1.0977-0.74609-1.8008-0.74609s-1.3398 0.28516-1.8008 0.74609c-0.46094 0.46094-0.74609 1.0977-0.74609 1.8008s0.28516 1.3398 0.74609 1.8008c0.46094 0.46094 1.0977 0.74609 1.8008 0.74609zm78.422-0.74609c0.46094 0.46094 1.0977 0.74609 1.8008 0.74609s1.3398-0.28516 1.8008-0.74609c0.46094-0.46094 0.74609-1.0977 0.74609-1.8008s-0.28516-1.3398-0.74609-1.8008c-0.46094-0.46094-1.0977-0.74609-1.8008-0.74609s-1.3398 0.28516-1.8008 0.74609c-0.46094 0.46094-0.74609 1.0977-0.74609 1.8008s0.28516 1.3398 0.74609 1.8008zm-64.828 11.695c0.70312 0 1.3398-0.28516 1.8008-0.74609 0.46094-0.46094 0.74609-1.0977 0.74609-1.8008 0-0.70312-0.28516-1.3398-0.74609-1.8008-0.46094-0.46094-1.0977-0.74609-1.8008-0.74609s-1.3398 0.28516-1.8008 0.74609c-0.46094 0.46094-0.74609 1.0977-0.74609 1.8008 0 0.70313 0.28516 1.3398 0.74609 1.8008 0.45703 0.46094 1.0977 0.74609 1.8008 0.74609zm30.328-15.824c0.35938-0.11328 0.72656-0.24609 1.0977-0.39844 0.39453-0.16406 0.76172-0.33594 1.1094-0.52344 0.30859-0.16406 0.66797-0.14453 0.94922 0.023437l5.4844 3.2969 2.1992-2.1992-3.2969-5.4844c-0.1875-0.3125-0.17578-0.69141-0.003906-0.98437 0.17969-0.33594 0.34766-0.69531 0.50391-1.0742 0.16016-0.38672 0.30078-0.77344 0.41406-1.1484 0.10156-0.33984 0.375-0.57812 0.69531-0.65625l6.2031-1.5469v-3.1094l-6.2031-1.543c-0.36328-0.089843-0.625-0.37109-0.70703-0.71094-0.11328-0.35938-0.24609-0.72656-0.39844-1.0977-0.16406-0.39453-0.33594-0.76172-0.52344-1.1094-0.16406-0.30859-0.14453-0.66797 0.023438-0.94922l3.2969-5.4844-2.1992-2.1992-5.4844 3.2969c-0.3125 0.1875-0.69141 0.17578-0.98438 0.003906-0.33594-0.17969-0.69531-0.34766-1.0742-0.50391-0.38672-0.16016-0.77344-0.30078-1.1484-0.41406-0.33984-0.10156-0.57812-0.375-0.65625-0.69531l-1.5469-6.2031h-3.1094l-1.543 6.2031c-0.089844 0.36328-0.37109 0.625-0.71094 0.71094-0.35937 0.11328-0.72656 0.24609-1.0977 0.39844-0.39453 0.16406-0.76172 0.33594-1.1094 0.52344-0.30859 0.16406-0.66797 0.14453-0.94922-0.023438l-5.4844-3.2969-2.1992 2.1992 3.2969 5.4844c0.1875 0.3125 0.17578 0.69141 0.003906 0.98438-0.17969 0.33594-0.34766 0.69531-0.50391 1.0742-0.16016 0.38672-0.30078 0.77344-0.41406 1.1484-0.10156 0.33984-0.375 0.57812-0.69531 0.65625l-6.2031 1.5469v3.1094l6.2031 1.543c0.36328 0.089844 0.625 0.37109 0.70703 0.71094 0.11328 0.35938 0.24609 0.72656 0.39844 1.0977 0.16406 0.39453 0.33594 0.76172 0.52344 1.1094 0.16406 0.30859 0.14453 0.66797-0.023437 0.94922l-3.2969 5.4844 2.1992 2.1992 5.4844-3.3008c0.3125-0.1875 0.69141-0.17578 0.98438-0.003906 0.33594 0.17969 0.69531 0.34766 1.0742 0.50391 0.38672 0.16016 0.76953 0.30078 1.1484 0.41406 0.33984 0.10156 0.57812 0.375 0.65625 0.69531l1.5469 6.2031 1.5547 0.003906h1.5547l1.543-6.2031c0.089844-0.36328 0.375-0.62891 0.71094-0.71094zm-24.91-12.816v-1.7461c0-0.43359 0.29297-0.83203 0.73828-0.94141l6.4219-1.5977c0.097656-0.27734 0.19531-0.54297 0.30469-0.80078 0.10547-0.25781 0.22656-0.51953 0.35156-0.78125l-3.3711-5.6094c-0.26953-0.37891-0.23828-0.91016 0.10156-1.25l3.2695-3.2656c0.30469-0.30469 0.79297-0.37891 1.1797-0.14453l5.6758 3.4141c0.26172-0.12891 0.52344-0.24609 0.78516-0.35156 0.25781-0.10547 0.52344-0.20703 0.80078-0.30469l1.582-6.3594c0.078125-0.45703 0.47656-0.80078 0.95703-0.80078l4.6211 0.003906c0.43359 0 0.83203 0.29297 0.94141 0.73828l1.5977 6.4219c0.27734 0.097657 0.54297 0.19531 0.80078 0.30469s0.51953 0.22656 0.78125 0.35156l5.6094-3.3711c0.37891-0.26953 0.91016-0.23828 1.25 0.10156l3.2656 3.2695c0.30469 0.30469 0.37891 0.79297 0.14453 1.1797l-3.4141 5.6758c0.12891 0.26172 0.24609 0.52344 0.35156 0.78125 0.10547 0.25781 0.20703 0.52344 0.30469 0.80078l6.3594 1.582c0.45703 0.078125 0.80078 0.47656 0.80078 0.95703v1.7461c0.80859 0.43359 1.668 0.77734 2.5625 1.0234 1.0352 0.28516 2.1367 0.43359 3.2812 0.43359 3.4258 0 6.5273-1.3867 8.7734-3.6328 2.2461-2.2461 3.6328-5.3477 3.6328-8.7734s-1.3867-6.5273-3.6328-8.7734c-2.2461-2.2461-5.3477-3.6328-8.7734-3.6328-1.2344 0-2.4258 0.17969-3.5469 0.51172-1.1602 0.34766-2.2539 0.85938-3.2461 1.5078-0.26953 0.17578-0.56641 0.28906-0.87891 0.33203-0.30859 0.042969-0.62109 0.011719-0.93359-0.085937-0.3125-0.10156-0.58203-0.25781-0.80859-0.47266-0.22656-0.21484-0.40234-0.47656-0.51953-0.78125-1-2.5859-2.7695-4.793-5.0234-6.3359-2.1875-1.5-4.8398-2.3789-7.6992-2.3789-0.55078 0-1.0898 0.03125-1.6172 0.09375-0.55469 0.066406-1.0859 0.16016-1.5898 0.28125-0.52734 0.12891-1.0586 0.042969-1.5078-0.19922-0.44531-0.24219-0.80469-0.64453-0.98828-1.1562-1.0195-2.8828-2.9141-5.3516-5.3672-7.082-2.3867-1.6875-5.3008-2.6758-8.4453-2.6758-4.043 0-7.707 1.6406-10.355 4.2891-2.6523 2.6523-4.2891 6.3125-4.2891 10.355 0 0.37891 0.011719 0.74609 0.039062 1.1016 0.027344 0.36328 0.070313 0.72656 0.12109 1.0938 0.074219 0.50391-0.03125 0.99609-0.27734 1.4062-0.24609 0.41016-0.63281 0.73828-1.1133 0.91016-2.4375 0.86719-4.5234 2.4727-5.9883 4.5469-1.4258 2.0195-2.2617 4.4844-2.2617 7.1445 0 3.4258 1.3867 6.5273 3.6328 8.7734 2.2461 2.2461 5.3477 3.6328 8.7734 3.6328 1.1445 0 2.2461-0.15234 3.2812-0.43359 0.88672-0.24609 1.7461-0.59375 2.5547-1.0273z" fill-rule="evenodd"/>
<text x="0.0" y="117.5" font-size="5.0" font-weight="bold" font-family="Arbeit Regular, Helvetica, Arial-Unicode, Arial, Sans-serif" fill="#000000">Created by Dava Arya Ditya</text><text x="0.0" y="122.5" font-size="5.0" font-weight="bold" font-family="Arbeit Regular, Helvetica, Arial-Unicode, Arial, Sans-serif" fill="#000000">from Noun Project</text></svg>