<svg xmlns="http://www.w3.org/2000/svg" version="1.1" viewBox="-5.0 -10.0 110.0 135.0">
 <g>
  <path d="m49.672 61.363c-2.2891 0-4.4219-1.1055-6-3.1172-1.5-1.9102-2.3281-4.4336-2.3281-7.1016 0-3.8008 1.6875-7.2539 4.4102-9.0273h-0.003906c0.3125-0.20703 0.69141-0.27734 1.0547-0.20313 0.36328 0.078126 0.68359 0.29688 0.88672 0.60547 0.20312 0.3125 0.27344 0.69141 0.19922 1.0586-0.078125 0.36328-0.29688 0.67969-0.60938 0.88281-1.9102 1.2383-3.1406 3.8633-3.1406 6.6797 0 4.0938 2.4805 7.4219 5.5312 7.4219s5.5273-3.3281 5.5273-7.4219c0-2.8164-1.2305-5.4375-3.1406-6.6836h0.003906c-0.63281-0.42969-0.80078-1.2812-0.38672-1.9219 0.41797-0.63672 1.2656-0.82422 1.9141-0.42188 2.7188 1.7734 4.4102 5.2344 4.4102 9.0273 0 2.668-0.82812 5.1914-2.3281 7.1016-1.5781 2.0156-3.7109 3.1211-6 3.1211z"/>
  <path d="m49.672 38.832c-0.38672 0-0.75781-0.16016-1.0234-0.44141l-2.5078-2.6719h0.003906c-0.25391-0.27344-0.39062-0.63281-0.37891-1.0039s0.17188-0.72266 0.44141-0.97656c0.56641-0.53125 1.4531-0.50391 1.9805 0.0625l1.4844 1.5859 1.4844-1.5859c0.52734-0.56641 1.4141-0.59375 1.9805-0.066406 0.5625 0.53125 0.59375 1.418 0.0625 1.9844l-2.5078 2.6719c-0.26172 0.28125-0.63281 0.44141-1.0195 0.44141z"/>
  <path d="m43.766 47.922c-0.37891 0-0.73828-0.15234-1-0.42188l-2.7461-2.8125h-1.6406c-0.77344 0-1.3984-0.62891-1.3984-1.4023 0-0.77344 0.625-1.3984 1.3984-1.3984h2.2266c0.37891 0 0.73828 0.15234 1 0.42188l3.1602 3.2344c0.39453 0.40234 0.50781 1.0039 0.28906 1.5234-0.21875 0.51562-0.72656 0.85547-1.2891 0.85547z"/>
  <path d="m55.578 47.922c-0.5625 0-1.0703-0.33984-1.2891-0.85547-0.21875-0.51953-0.10547-1.1211 0.28906-1.5234l3.1602-3.2344c0.26172-0.26953 0.62109-0.42188 1-0.42188h2.2266c0.77344 0 1.3984 0.625 1.3984 1.3984 0 0.77344-0.625 1.4023-1.3984 1.4023h-1.6406l-2.7461 2.8125c-0.26172 0.26953-0.625 0.42188-1 0.42188z"/>
  <path d="m40.605 59.199h-2.2266c-0.77344 0-1.3984-0.625-1.3984-1.3984 0-0.77344 0.625-1.4023 1.3984-1.4023h1.6367l2.3906-2.4492c0.54688-0.51172 1.4023-0.50391 1.9375 0.019531 0.53906 0.52344 0.56641 1.3789 0.0625 1.9375l-2.8008 2.8711h0.003906c-0.26562 0.26953-0.625 0.42188-1.0039 0.42188z"/>
  <path d="m60.965 59.199h-2.2305c-0.375 0-0.73438-0.15234-1-0.42188l-2.8008-2.8711h0.003906c-0.50391-0.55859-0.47656-1.4141 0.0625-1.9375 0.53516-0.52344 1.3906-0.53125 1.9375-0.019531l2.3867 2.4492h1.6406c0.77344 0 1.3984 0.62891 1.3984 1.4023 0 0.77344-0.625 1.3984-1.3984 1.3984z"/>
  <path d="m49.672 61.363c-0.77344 0-1.4023-0.62891-1.4023-1.3984v-15.152c0-0.77344 0.62891-1.3984 1.4023-1.3984s1.3984 0.625 1.3984 1.3984v15.152c0 0.37109-0.14844 0.72656-0.41016 0.98828-0.26172 0.26172-0.61719 0.41016-0.98828 0.41016z"/>
  <path d="m60.965 51.945h-4.3789c-0.77344 0-1.3984-0.62891-1.3984-1.4023 0-0.77344 0.625-1.3984 1.3984-1.3984h4.3789c0.77344 0 1.3984 0.625 1.3984 1.3984 0 0.77344-0.625 1.4023-1.3984 1.4023z"/>
  <path d="m42.754 51.945h-4.375c-0.77344 0-1.3984-0.62891-1.3984-1.4023 0-0.77344 0.625-1.3984 1.3984-1.3984h4.375c0.77344 0 1.4023 0.625 1.4023 1.3984 0 0.77344-0.62891 1.4023-1.4023 1.4023z"/>
  <path d="m49.672 46.215c-2.9219 0-5.3008-2.2812-5.3008-5.0898s2.375-5.0898 5.3008-5.0898 5.3008 2.2852 5.3008 5.0898-2.3789 5.0898-5.3008 5.0898zm0-7.3828c-1.375 0-2.5 1.0273-2.5 2.2891 0 1.2617 1.1211 2.2891 2.5 2.2891s2.5-1.0273 2.5-2.2891c0-1.2617-1.125-2.2891-2.5-2.2891z"/>
  <path d="m49 69c-6.3672 0-12.371-2.9609-16.246-8.0117s-5.1836-11.613-3.5352-17.766c1.6445-6.1484 6.0586-11.184 11.941-13.617 5.8828-2.4375 12.562-2 18.074 1.1797 5.5156 3.1836 9.2344 8.75 10.066 15.062 0.83203 6.3086-1.3203 12.648-5.8203 17.152-3.832 3.8555-9.0469 6.0156-14.48 6zm0-38.156c-5.4961-0.003906-10.68 2.5547-14.027 6.9141-3.3438 4.3594-4.4727 10.027-3.0508 15.34 1.4219 5.3086 5.2344 9.6523 10.312 11.758 5.0781 2.1016 10.844 1.7227 15.605-1.0234 4.7578-2.75 7.9688-7.5547 8.6875-13.004s-1.1406-10.922-5.0273-14.809c-3.3086-3.3242-7.8086-5.1914-12.5-5.1797z"/>
  <path d="m86.539 93.422c-1.9531 0-3.8281-0.77344-5.207-2.1562l-19.395-19.391c-0.26172-0.26172-0.41016-0.62109-0.41016-0.99219 0-0.37109 0.14844-0.72656 0.41016-0.98828l8.4336-8.4336c0.54688-0.54688 1.4336-0.54688 1.9805 0l19.391 19.395c2.1094 2.1055 2.7383 5.2695 1.5977 8.0234-1.1367 2.75-3.8242 4.543-6.8008 4.543zm-21.629-22.539 18.398 18.398v0.003906c1.7812 1.7812 4.6719 1.7812 6.4531 0s1.7812-4.6719 0-6.4531l-18.398-18.398z"/>
  <path d="m64.641 70.57c-0.37109 0-0.72656-0.14844-0.98828-0.41016l-4.8867-4.8867c-0.54688-0.54688-0.54688-1.4336 0-1.9805s1.4336-0.54688 1.9805 0l4.8867 4.8867c0.39844 0.40234 0.51953 1.0039 0.30078 1.5273-0.21484 0.52344-0.72656 0.86328-1.293 0.86328z"/>
  <path d="m69.648 65.566c-0.37109 0-0.73047-0.14844-0.99219-0.41016l-4.8867-4.8867c-0.54688-0.54688-0.54688-1.4336 0-1.9805 0.54688-0.54687 1.4336-0.54687 1.9805 0l4.8867 4.8867c0.40234 0.39844 0.51953 1 0.30469 1.5234-0.21875 0.52344-0.72656 0.86719-1.293 0.86719z"/>
  <path d="m29.613 16.746h-14.742c-0.77344 0-1.3984-0.625-1.3984-1.3984 0-0.77344 0.625-1.3984 1.3984-1.3984h14.742c0.77344 0 1.4023 0.625 1.4023 1.3984 0 0.77344-0.62891 1.3984-1.4023 1.3984z"/>
  <path d="m88.586 24.121h-81.086c-0.77344 0-1.3984-0.62891-1.3984-1.4023v-14.742c0-0.77344 0.625-1.3984 1.3984-1.3984h81.086c0.77344 0 1.3984 0.625 1.3984 1.3984v14.742c0 0.37109-0.14453 0.73047-0.41016 0.99219-0.26172 0.26172-0.61719 0.41016-0.98828 0.41016zm-79.688-2.8008h78.289v-11.941h-78.289z"/>
  <path d="m88.586 75.719h-5.3555c-0.77344 0-1.4023-0.625-1.4023-1.3984 0-0.77344 0.62891-1.3984 1.4023-1.3984h3.957v-48.801h-78.289v48.801h57.465c0.77344 0 1.4023 0.625 1.4023 1.3984 0 0.77344-0.62891 1.3984-1.4023 1.3984h-58.863c-0.77344 0-1.3984-0.625-1.3984-1.3984v-51.602c0-0.77344 0.625-1.3984 1.3984-1.3984h81.086c0.77344 0 1.3984 0.625 1.3984 1.3984v51.602c0 0.37109-0.14453 0.72656-0.41016 0.98828-0.26172 0.26562-0.61719 0.41016-0.98828 0.41016z"/>
  <path d="m81.215 16.746h-2.9492c-0.77344 0-1.3984-0.625-1.3984-1.3984 0-0.77344 0.625-1.3984 1.3984-1.3984h2.9492c0.77344 0 1.3984 0.625 1.3984 1.3984 0 0.77344-0.625 1.3984-1.3984 1.3984z"/>
  <path d="m70.895 16.746h-2.9492c-0.77344 0-1.3984-0.625-1.3984-1.3984 0-0.77344 0.625-1.3984 1.3984-1.3984h2.9492c0.77344 0 1.3984 0.625 1.3984 1.3984 0 0.77344-0.625 1.3984-1.3984 1.3984z"/>
  <path d="m60.574 16.746h-2.9492c-0.77344 0-1.3984-0.625-1.3984-1.3984 0-0.77344 0.625-1.3984 1.3984-1.3984h2.9492c0.77344 0 1.3984 0.625 1.3984 1.3984 0 0.77344-0.625 1.3984-1.3984 1.3984z"/>
 </g>
<text x="0.0" y="117.5" font-size="5.0" font-weight="bold" font-family="Arbeit Regular, Helvetica, Arial-Unicode, Arial, Sans-serif" fill="#000000">Created by Qadeer Hussain</text><text x="0.0" y="122.5" font-size="5.0" font-weight="bold" font-family="Arbeit Regular, Helvetica, Arial-Unicode, Arial, Sans-serif" fill="#000000">from Noun Project</text></svg>