<svg xmlns="http://www.w3.org/2000/svg" data-name="Layer 1" viewBox="0 0 512 640" x="0px" y="0px"><defs><style>.cls-1{fill-rule:evenodd;}</style></defs><path class="cls-1" d="M406.893,9.982a50.553,50.553,0,0,1,32.7,89.107h11.855A50.75,50.75,0,0,1,502,149.654v66.813a6,6,0,0,1-6,6H348.4c12.423,41.749-18.85,84.087-62.7,84.087H247.724l-48.058,28.834a5.988,5.988,0,0,1-8.936-6.3l-.017,0,5.928-29.643c-39.406-20.095-48.136-72.994-16.591-104.539A65.2,65.2,0,0,1,226.3,175.745H285.7a65.172,65.172,0,0,1,26.084,5.409v-31.5h.024a51.317,51.317,0,0,1,14.931-35.823,50.075,50.075,0,0,1,35.6-14.742h11.855a50.554,50.554,0,0,1,32.7-89.107ZM54.553,437.556a6,6,0,0,1,12,0v52.462H143.66V437.556a6,6,0,0,1,12,0v52.462h32.553V429.205a38.634,38.634,0,0,0-38.553-38.565H60.553a38.653,38.653,0,0,0-38.576,38.565H22v60.813H54.553V437.556Zm130.706-44.174a50.07,50.07,0,0,0-35.6-14.743H137.807a50.553,50.553,0,1,0-65.4,0H60.553a50.071,50.071,0,0,0-35.6,14.743,51.319,51.319,0,0,0-14.931,35.823H10v66.813a6,6,0,0,0,6,6H194.214a6,6,0,0,0,6-6V429.205a51.471,51.471,0,0,0-14.955-35.823Zm-80.2-14.743a38.553,38.553,0,1,1,38.6-38.553,38.551,38.551,0,0,1-38.6,38.553ZM267.136,76.818l-72.922.153v-.024a95.109,95.109,0,0,0-95.107,95.107v72.829a6,6,0,0,0,12,0V172.054a83.105,83.105,0,0,1,83.107-83.107v-.023l72.922-.153a5.977,5.977,0,0,0,0-11.953ZM244.864,435.182l72.922-.152v.023a95.109,95.109,0,0,0,95.107-95.107V267.117a6,6,0,0,0-12,0v72.829a83.105,83.105,0,0,1-83.107,83.107v.024l-72.922.152a5.977,5.977,0,0,0,0,11.953ZM203.447,232.3H308.553a6,6,0,0,0,0-12H203.447a6,6,0,0,0,0,12Zm0,29.7H308.553a6,6,0,0,0,0-12H203.447a6,6,0,0,0,0,12Zm140.029-51.533h12.863V158.006a6,6,0,0,1,12,0v52.461h77.106V158.006a6,6,0,0,1,12,0v52.461H490V149.654a38.635,38.635,0,0,0-38.553-38.565H362.339a38.653,38.653,0,0,0-38.576,38.565h.023v38.318a65.692,65.692,0,0,1,19.69,22.5Zm-28.907-14.256a53.194,53.194,0,0,0-28.867-8.466H226.3a53.417,53.417,0,0,0-20.832,102.6,6,6,0,0,1,3.865,6.821l-4.2,20.99,37.476-22.486a5.979,5.979,0,0,1,3.491-1.119h39.6a53.41,53.41,0,0,0,28.867-98.343ZM434.155,33.274a38.554,38.554,0,1,0,0,54.523A38.556,38.556,0,0,0,434.155,33.274Z"/><text x="0" y="527" fill="#000000" font-size="5px" font-weight="bold" font-family="'Helvetica Neue', Helvetica, Arial-Unicode, Arial, Sans-serif">Created by Safaidin</text><text x="0" y="532" fill="#000000" font-size="5px" font-weight="bold" font-family="'Helvetica Neue', Helvetica, Arial-Unicode, Arial, Sans-serif">from the Noun Project</text></svg>