<svg xmlns="http://www.w3.org/2000/svg" data-name="Layer 1" viewBox="0 0 100 125" x="0px" y="0px"><path d="M64.877,72.393a5.018,5.018,0,0,0-3.939-.15l-12.7,4.91a4.591,4.591,0,0,0-1.841-1.89L36.243,69.618a12.6,12.6,0,0,0-8.574-5.5c-3.076-.419-6.589.346-10.452,2.266l-.2-.733a2.449,2.449,0,0,0-3.028-1.7l-7.2,2.041A2.456,2.456,0,0,0,5.09,69.006l5.332,19.1a2.463,2.463,0,0,0,2.349,1.8,2.5,2.5,0,0,0,.68-.1l7.2-2.041a2.456,2.456,0,0,0,1.692-3.017l-.14-.5,2.609-.733,17.894,7.652a1.088,1.088,0,0,0,.423.086,1.076,1.076,0,0,0,.451-.1l20.95-9.666a5.137,5.137,0,0,0,2.824-6.321A4.671,4.671,0,0,0,64.877,72.393ZM20.065,85.69l-7.2,2.041a.263.263,0,0,1-.228-.027.257.257,0,0,1-.142-.181l-5.331-19.1a.3.3,0,0,1,.206-.368l7.2-2.041A.326.326,0,0,1,14.662,66a.269.269,0,0,1,.136.041.257.257,0,0,1,.142.181l5.332,19.1A.3.3,0,0,1,20.065,85.69ZM63.63,79.529,43.113,89l-17.8-7.613a1.076,1.076,0,0,0-.714-.047l-2.97.835-3.819-13.68c7.393-3.81,12.9-2.966,16.825,2.572a1.085,1.085,0,0,0,.355.319l10.364,5.762a2.5,2.5,0,0,1,1.187,1.524c.011.037.02.074.029.112l0,.018a2.622,2.622,0,0,1-.257,1.86,2.558,2.558,0,0,1-3.468.974L38.09,78.963a1.076,1.076,0,1,0-1.053,1.876l4.757,2.67a4.709,4.709,0,0,0,6.4-1.8,4.764,4.764,0,0,0,.6-2.463l12.927-5a2.857,2.857,0,0,1,2.244.088,2.539,2.539,0,0,1,1.353,1.5A2.975,2.975,0,0,1,63.63,79.529Zm4.335-42.638h-10.6V32.753a1.075,1.075,0,0,0-1.076-1.075H43.709a1.075,1.075,0,0,0-1.076,1.075v4.138h-10.6a1.075,1.075,0,0,0-1.076,1.075v24.6a1.076,1.076,0,0,0,1.076,1.076h35.93a1.075,1.075,0,0,0,1.075-1.076V37.966A1.075,1.075,0,0,0,67.965,36.891ZM44.784,33.829H55.216v3.062H44.784Zm22.1,5.213V42.8l-5.584,3.823H53.347a3.372,3.372,0,0,0-6.695,0H38.7L33.111,42.8V39.042ZM51.223,47.029v1.337a1.223,1.223,0,0,1-2.446,0V47.029a1.223,1.223,0,1,1,2.446,0ZM33.111,61.485V45.406l4.643,3.179a1.073,1.073,0,0,0,.608.188h8.29a3.372,3.372,0,0,0,6.7,0h8.291a1.073,1.073,0,0,0,.608-.188l4.643-3.179V61.485Zm61.8-30.491L89.578,11.9a2.451,2.451,0,0,0-3.029-1.7l-7.2,2.041a2.456,2.456,0,0,0-1.692,3.017l.14.5-2.609.733L57.293,8.838a1.077,1.077,0,0,0-.874.013l-20.95,9.666a5.136,5.136,0,0,0-2.824,6.321,4.671,4.671,0,0,0,2.478,2.769,5.018,5.018,0,0,0,3.939.15l12.7-4.91a4.591,4.591,0,0,0,1.841,1.89l10.154,5.644a12.594,12.594,0,0,0,8.574,5.505,12.345,12.345,0,0,0,1.68.112,19.982,19.982,0,0,0,8.772-2.378l.2.733a2.458,2.458,0,0,0,2.349,1.8,2.5,2.5,0,0,0,.679-.1l7.2-2.041A2.456,2.456,0,0,0,94.91,30.994ZM65.368,28.937a1.074,1.074,0,0,0-.355-.319L54.649,22.856a2.5,2.5,0,0,1-1.187-1.524c-.011-.037-.02-.074-.029-.111l0-.02a2.62,2.62,0,0,1,.257-1.859,2.558,2.558,0,0,1,3.468-.974l4.756,2.669a1.076,1.076,0,1,0,1.053-1.876l-4.757-2.67a4.709,4.709,0,0,0-6.4,1.8,4.761,4.761,0,0,0-.6,2.463l-12.927,5a2.857,2.857,0,0,1-2.244-.088,2.536,2.536,0,0,1-1.353-1.5,2.975,2.975,0,0,1,1.681-3.693L56.887,11l17.8,7.613a1.075,1.075,0,0,0,.714.047l2.97-.835,3.819,13.68C74.8,35.319,69.291,34.475,65.368,28.937Zm27.263,3-7.2,2.041a.3.3,0,0,1-.37-.207l-5.332-19.1a.3.3,0,0,1,.207-.368l7.2-2.041a.326.326,0,0,1,.092-.015.274.274,0,0,1,.136.042.257.257,0,0,1,.142.18l5.331,19.1A.3.3,0,0,1,92.631,31.941Z"/><text x="0" y="115" fill="#000000" font-size="5px" font-weight="bold" font-family="'Helvetica Neue', Helvetica, Arial-Unicode, Arial, Sans-serif">Created by loviana</text><text x="0" y="120" fill="#000000" font-size="5px" font-weight="bold" font-family="'Helvetica Neue', Helvetica, Arial-Unicode, Arial, Sans-serif">from the Noun Project</text></svg>