<svg xmlns="http://www.w3.org/2000/svg" version="1.1" viewBox="-5.0 -10.0 110.0 135.0">
 <path d="m26.309 48.426c-0.097656 0.007813-0.19531 0.003907-0.29297-0.011719-5.4727-0.78125-9.0547-3.7539-10.746-7.3047-0.79297-1.6641-1.1641-3.457-1.1133-5.2227 0.046875-1.7812 0.52344-3.5273 1.418-5.0703 1.6016-2.7539 4.5273-4.8633 8.7539-5.3945 0.24609-2.1992 0.91797-4.0938 1.9062-5.6562 1.1211-1.7734 2.6445-3.1172 4.4141-3.9922 1.75-0.86719 3.7383-1.2773 5.8125-1.1953 1.9961 0.078125 4.0742 0.61328 6.0898 1.6328 1.8789-4.3281 4.957-7.1172 8.4609-8.5391 2.5742-1.043 5.3711-1.3359 8.0859-0.95312 2.707 0.38281 5.332 1.4414 7.5742 3.1094 3.3828 2.5156 5.8906 6.4062 6.4766 11.43 3.9219 1.4023 6.7227 3.8164 8.3945 6.6445 1.2969 2.1992 1.9102 4.6523 1.832 7.082-0.074219 2.4336-0.84375 4.8398-2.3086 6.9492-1.9961 2.875-5.2695 5.1914-9.8242 6.2422-0.12891 0.027344-0.25781 0.039063-0.38672 0.035157l-16.836 0.078124c-0.75781 0.003907-1.375-0.60937-1.3789-1.3672s0.60938-1.375 1.3672-1.3789l16.754-0.078125c3.7656-0.89844 6.4414-2.7773 8.043-5.0898 1.1562-1.668 1.7617-3.5625 1.8203-5.4727 0.058594-1.9141-0.42578-3.8516-1.457-5.5977-1.457-2.4688-4-4.5586-7.625-5.6875-0.57422-0.13281-1.0195-0.62891-1.0586-1.25-0.30859-4.5938-2.4727-8.1133-5.4492-10.332-1.8672-1.3906-4.0586-2.2734-6.3125-2.5938-2.2461-0.30859-4.5586-0.066406-6.6758 0.78906-3.207 1.3008-5.9961 4.0352-7.4844 8.4062-0.035156 0.10156-0.082031 0.19922-0.13672 0.28906-0.40234 0.64453-1.2539 0.83594-1.8945 0.42969-2.0352-1.2891-4.168-1.9492-6.1758-2.0273-1.6133-0.0625-3.1445 0.25-4.4883 0.91406-1.3203 0.65625-2.4609 1.6602-3.3047 2.9922-0.91406 1.4453-1.4844 3.2812-1.5781 5.4844-0.011719 0.71875-0.58203 1.3164-1.3086 1.3477-3.8398 0.19141-6.4102 1.875-7.7227 4.1289-0.66406 1.1445-1.0195 2.4375-1.0547 3.7539-0.035157 1.3359 0.25 2.707 0.85547 3.9805 1.3164 2.7695 4.1641 5.0898 8.5664 5.7422l16.797-0.078125c0.75781-0.003906 1.375 0.60938 1.3789 1.3672 0.003906 0.75781-0.60938 1.375-1.3672 1.3789zm29.152-8.4297c-0.95703-0.63672-2-1.1523-3.1094-1.5117-1.0742-0.34766-2.2148-0.55859-3.4102-0.60938-1.332-0.054688-2.6172 0.097656-3.832 0.42188-1.2617 0.33984-2.4531 0.875-3.5312 1.5664-0.64062 0.41016-0.82422 1.2617-0.41406 1.9023 0.41016 0.64062 1.2617 0.82422 1.9023 0.41406 0.83984-0.53906 1.7695-0.95703 2.7578-1.2227 0.96094-0.26172 1.9727-0.37891 3.0117-0.33594 0.92578 0.039062 1.8203 0.20312 2.6641 0.48047 0.875 0.28516 1.6914 0.68359 2.4297 1.1797 0.62891 0.42188 1.4844 0.25391 1.9062-0.37891 0.42578-0.63281 0.25781-1.4844-0.375-1.9062zm4.6602-4.2734c-1.5391-1.2188-3.2734-2.1992-5.1406-2.8945-1.8008-0.66797-3.7461-1.0664-5.7812-1.1523-2.2695-0.09375-4.457 0.21484-6.4883 0.85938-2.1133 0.67188-4.0781 1.7109-5.8086 3.0469-0.60156 0.46484-0.71094 1.3281-0.24609 1.9297 0.46484 0.60156 1.3281 0.71094 1.9297 0.24609 1.4688-1.1328 3.1445-2.0195 4.957-2.5938 1.75-0.55469 3.6211-0.82031 5.5508-0.74219 1.7305 0.070313 3.3906 0.41406 4.9414 0.99219 1.6055 0.59375 3.082 1.4297 4.3867 2.4609 0.59375 0.46875 1.457 0.36719 1.9297-0.22656 0.46484-0.59375 0.36328-1.457-0.23047-1.9258zm4.6758-4.3633c-2.1133-1.8047-4.5273-3.2695-7.1641-4.3008-2.5391-0.99609-5.2891-1.5938-8.1758-1.7109-3.207-0.13281-6.3008 0.33984-9.1641 1.3164-2.9805 1.0156-5.7148 2.5703-8.0781 4.5547-0.58203 0.48828-0.66016 1.3555-0.17188 1.9375s1.3555 0.66016 1.9414 0.17188c2.1094-1.7695 4.5469-3.1562 7.1953-4.0586 2.5586-0.87109 5.3164-1.293 8.1719-1.1758 2.5625 0.10547 5.0117 0.64062 7.2812 1.5273 2.3477 0.92188 4.5 2.2227 6.375 3.8281 0.57813 0.49219 1.4453 0.42578 1.9375-0.15234 0.49609-0.57812 0.42969-1.4453-0.14844-1.9375zm9.9961 56.598 0.023437 2.6523h2.9414c0.76172 0 1.3789 0.61719 1.3789 1.3789s-0.61719 1.3789-1.3789 1.3789h-8.6016c-0.76172 0-1.3789-0.61719-1.3789-1.3789s0.61719-1.3789 1.3789-1.3789h2.918l-0.023438-2.6523h-7.75c-0.91797 0-1.75-0.375-2.3555-0.97656-0.60156-0.60156-0.97656-1.4375-0.97656-2.3555l-0.003906-12.074c0-0.91797 0.375-1.75 0.97656-2.3555 0.60156-0.60156 1.4375-0.97656 2.3555-0.97656h18.219c0.91797 0 1.75 0.375 2.3555 0.97656 0.60156 0.60156 0.97656 1.4375 0.97656 2.3555l0.003906 12.074c0 0.91797-0.375 1.75-0.97656 2.3555-0.60156 0.60156-1.4375 0.97656-2.3555 0.97656zm-10.492-15.98c-0.15625 0-0.30078 0.066407-0.40234 0.16797-0.10547 0.10547-0.16797 0.24609-0.16797 0.40234l-0.003907 12.078c0 0.15625 0.066407 0.30078 0.16797 0.40234 0.10547 0.10547 0.24609 0.16797 0.40234 0.16797h18.219c0.15625 0 0.30078-0.066406 0.40234-0.16797 0.10547-0.10547 0.16797-0.24609 0.16797-0.40234l0.003906-12.074c0-0.15625-0.066406-0.30078-0.16797-0.40234-0.10547-0.10547-0.24609-0.16797-0.40234-0.16797zm10.398-12.156c0.003906-0.035156 0.003906-0.070312 0.003906-0.10156 0-0.76172-0.61719-1.3789-1.3789-1.3789l-20.344-0.003906c-0.22266-0.70703-0.61328-1.3359-1.125-1.8477-0.51562-0.51172-1.1523-0.90625-1.8633-1.1289-0.003907-0.67188-0.007813-1.543-0.011719-2.4727-0.011719-2.2227-0.023438-4.8008-0.035157-5.957-0.007812-0.75781-0.63281-1.3672-1.3906-1.3555-0.75781 0.007812-1.3672 0.63281-1.3555 1.3906 0.011719 1.168 0.027343 3.7266 0.035156 5.9336 0.003906 0.92969 0.007813 1.7969 0.011719 2.4688-0.70312 0.22266-1.3359 0.61328-1.8438 1.125-0.51172 0.51172-0.90234 1.1445-1.125 1.8477l-20.348-0.003906c-0.76172 0-1.3789 0.61719-1.3789 1.3789 0 0.046875 0.003907 0.09375 0.007813 0.14062l0.082031 6.4141c0.007813 0.75781 0.63281 1.3672 1.3906 1.3555 0.75781-0.007812 1.3672-0.63281 1.3555-1.3906l-0.066407-5.1406h18.953c0.22266 0.70703 0.61328 1.3359 1.125 1.8477 0.82422 0.82422 1.9648 1.3359 3.2266 1.3359 1.2578 0 2.4023-0.51172 3.2266-1.3359 0.51172-0.51172 0.90234-1.1445 1.125-1.8477h18.988l0.066406 5.1758c0.007812 0.75781 0.63281 1.3672 1.3906 1.3555 0.75781-0.007812 1.3672-0.63281 1.3555-1.3906zm-46.035 13.117c0-0.24219-0.082031-0.46094-0.21484-0.63281-0.11719-0.14844-0.26953-0.26172-0.44922-0.33203h-7.9688c-0.17969 0.070313-0.33594 0.18359-0.44922 0.33203-0.13281 0.17187-0.21484 0.39062-0.21484 0.63281v0.56641h9.2969zm-9.2969 16.215v0.49219c0 0.28125 0.11719 0.53906 0.30469 0.72656s0.44531 0.30469 0.72656 0.30469h7.2305c0.28125 0 0.53906-0.11719 0.72656-0.30469s0.30469-0.44531 0.30469-0.72656v-0.49219zm9.2969-2.7578v-10.137h-9.2969v10.137zm1.9492-15.781c0.50391 0.64844 0.80859 1.4531 0.80859 2.3242v16.707c0 1.043-0.42578 1.9922-1.1133 2.6758-0.6875 0.6875-1.6328 1.1133-2.6758 1.1133h-7.2305c-1.043 0-1.9922-0.42578-2.6758-1.1133-0.6875-0.6875-1.1133-1.6328-1.1133-2.6758l-0.003906-16.707c0-0.87109 0.30078-1.6797 0.80859-2.3242 0.51172-0.65625 1.2383-1.1406 2.0664-1.3516v0.003906c0.10547-0.027344 0.21875-0.039063 0.33203-0.039063h8.2969c0.14062-0.011718 0.28906 0 0.43359 0.039063 0.82812 0.20312 1.5508 0.6875 2.0664 1.3477zm19.293-12.172c0.32812 0.32812 0.52734 0.77734 0.52734 1.2773s-0.20312 0.94922-0.52734 1.2773c-0.32812 0.32422-0.77734 0.52734-1.2773 0.52734s-0.94922-0.20313-1.2773-0.52734c-0.32422-0.32422-0.52734-0.77734-0.52734-1.2773s0.20312-0.94922 0.52734-1.2773c0.32813-0.32812 0.77734-0.52734 1.2773-0.52734 0.49609-0.003906 0.94922 0.19922 1.2773 0.52734z" fill-rule="evenodd"/>
<text x="0.0" y="117.5" font-size="5.0" font-weight="bold" font-family="Arbeit Regular, Helvetica, Arial-Unicode, Arial, Sans-serif" fill="#000000">Created by Muhammad Syaifuddin</text><text x="0.0" y="122.5" font-size="5.0" font-weight="bold" font-family="Arbeit Regular, Helvetica, Arial-Unicode, Arial, Sans-serif" fill="#000000">from Noun Project</text></svg>