<svg xmlns="http://www.w3.org/2000/svg" xmlns:xlink="http://www.w3.org/1999/xlink" version="1.1" x="0px" y="0px" viewBox="0 0 72 90" style="enable-background:new 0 0 72 72;" xml:space="preserve"><path d="M46.42,29.33c0.71,0,1.22,0.51,1.22,1.22c0,0.71-0.51,1.22-1.22,1.22c-0.71,0-1.32-0.51-1.32-1.22  C45.09,29.83,45.7,29.33,46.42,29.33L46.42,29.33z M46.42,27.5c-1.73,0-3.05,1.32-3.05,3.05c0,1.73,1.32,3.05,3.05,3.05  c1.63,0,3.05-1.32,3.05-3.05C49.46,28.82,48.04,27.5,46.42,27.5L46.42,27.5z M46.01,19.06c6.3-0.2,11.58,4.78,11.79,11.08  c0.1,1.22,1.83,1.12,1.83,0c-0.2-7.32-6.4-13.11-13.72-12.8C44.79,17.34,44.79,19.16,46.01,19.06L46.01,19.06z M56.68,40.61  L56.17,40c-2.64-2.24-5.79,1.12-3.66,3.56l2.44,2.34c0.91,0.91,2.34,0.91,3.35,0l4.78-4.37c2.54-2.44-0.91-5.89-3.35-3.66  L56.68,40.61z M57.29,42.43l3.66-3.35c1.02-0.71,1.52,0.61,1.02,1.22l-4.78,4.37c-0.3,0.3-0.81,0.2-1.12,0l-2.24-2.34  c-0.71-0.71,0.41-1.83,1.12-1.12l1.12,1.22C56.37,42.74,56.88,42.74,57.29,42.43L57.29,42.43z M4.14,22.42v31.7  c0.1,2.64,2.34,4.27,4.78,4.17c6.5-0.3,13.01-0.61,19.41-0.71l-1.93,4.37h-1.52c-3.86,0-5.49,2.54-5.08,6.3  c0,0.51,0.41,0.81,0.81,0.81h32.11c0.51,0,0.91-0.41,0.91-0.91c0.41-3.66-1.22-6.2-5.08-6.2h-1.52l-1.93-4.37  c6.4,0.1,12.91,0.41,19.41,0.71c2.54,0.1,4.57-1.52,4.78-4.17V16.83c-0.1-2.54-2.34-4.27-4.78-4.27H32.09c0.2-2.44-1.02-4.67-3.05-6  c-2.13-1.42-4.88-1.52-7.01-0.3c-0.61-0.81-1.32-1.63-2.13-2.13c-2.74-1.83-6.4-1.52-8.74,0.81C9.83,6.26,9.02,7.99,9.02,9.92  c0,0.51,0.1,1.12,0.2,1.63c-3.56,0-6.5,3.05-6.5,6.71C2.72,19.77,3.23,21.3,4.14,22.42L4.14,22.42z M31.17,23.13  c-1.52-4.17-5.49-6.91-9.86-6.91c-4.47,0-8.33,2.74-9.86,6.91H9.43c-2.74,0-4.98-2.24-4.98-4.88c0-2.74,2.24-4.98,4.88-4.98  c0.41,0,0.71,0.1,1.02,0.1c0.91,0.2,1.12-0.51,1.02-1.22c-0.3-0.71-0.51-1.42-0.51-2.24c0-1.42,0.61-2.74,1.52-3.66  c1.73-1.73,4.47-2.03,6.5-0.71c0.91,0.61,1.52,1.42,1.93,2.44c0.2,0.51,1.02,0.71,1.42,0.3c1.73-1.42,3.96-1.42,5.79-0.3  c1.93,1.32,2.74,3.45,2.03,5.59c0.1,0.71,0.61,1.12,1.32,1.12c1.02,0,2.03,0.41,2.85,1.12c1.73,1.63,1.63,4.06,0.41,5.69  C33.41,23.03,32.7,22.72,31.17,23.13L31.17,23.13z M24.36,18.66c3.05,1.12,5.28,3.96,5.59,7.21h-2.54  C27.21,23.23,26.19,20.69,24.36,18.66L24.36,18.66z M27.41,27.7h2.54c-0.3,3.25-2.54,6.1-5.59,7.21  C26.19,32.88,27.21,30.34,27.41,27.7L27.41,27.7z M18.17,34.92c-3.05-1.12-5.28-3.96-5.59-7.21h2.64  C15.42,30.34,16.44,32.98,18.17,34.92L18.17,34.92z M15.22,25.87h-2.64c0.3-3.25,2.54-6.1,5.59-7.21  C16.44,20.69,15.42,23.23,15.22,25.87L15.22,25.87z M22.13,18.96c2.03,1.73,3.25,4.27,3.45,6.91h-3.45V18.96z M20.4,18.96v6.91  h-3.45C17.25,23.23,18.37,20.69,20.4,18.96L20.4,18.96z M16.95,27.7h3.45v6.91C18.37,32.88,17.25,30.34,16.95,27.7L16.95,27.7z   M22.13,34.61V27.7h3.45C25.38,30.34,24.16,32.88,22.13,34.61L22.13,34.61z M46.82,42.03c-6.3,0.2-11.69-4.78-11.89-11.08  c0-1.22-1.83-1.12-1.73,0c0.2,7.32,6.3,13.11,13.62,12.8C48.04,43.76,47.94,41.93,46.82,42.03L46.82,42.03z M46.52,37.05  c1.32,0.1,1.32-1.83,0-1.73c-2.64,0-4.78-2.03-4.88-4.57c0-1.22-1.73-1.22-1.73,0C39.91,34.31,43.06,37.15,46.52,37.05L46.52,37.05z   M46.72,38.68c-4.47,0.1-8.23-3.35-8.43-7.82c0-1.22-1.83-1.12-1.73,0c0.2,5.49,4.78,9.76,10.16,9.55  C47.94,40.4,47.84,38.57,46.72,38.68L46.72,38.68z M43.06,57.47l2.03,4.47H28.33l2.03-4.47C34.63,57.47,38.79,57.47,43.06,57.47  L43.06,57.47z M21.52,67.23c0-2.34,0.91-3.45,3.35-3.45h23.68c2.34,0,3.35,1.12,3.35,3.45H21.52z M62.57,54.12  c0-1.12,1.83-1.12,1.83,0C64.4,55.34,62.57,55.34,62.57,54.12L62.57,54.12z M58.71,54.12c0-1.12,1.83-1.12,1.83,0  C60.54,55.34,58.71,55.34,58.71,54.12L58.71,54.12z M54.95,54.12c0-1.12,1.73-1.12,1.73,0C56.68,55.34,54.95,55.34,54.95,54.12  L54.95,54.12z M5.97,51.89h61.48v2.24c0,1.52-1.52,2.44-2.85,2.44c-18.49-1.12-37.29-1.22-55.79,0c-1.42-0.1-2.85-0.81-2.85-2.44  V51.89z M46.21,24.04c-1.22-0.1-1.22,1.83,0.1,1.73c2.54,0,4.78,2.03,4.88,4.57c0,1.22,1.73,1.22,1.73,0  C52.92,26.79,49.77,23.94,46.21,24.04L46.21,24.04z M22.03,47.21c-0.71,0.3-1.73,0-2.03-0.71c-0.2-0.41-0.2-0.81-0.1-1.12  c0.3-0.81,1.12-1.22,1.93-1.02c0.81,0.3,1.22,1.22,0.91,1.93C22.64,46.7,22.33,47.01,22.03,47.21L22.03,47.21z M29.45,43.15  c-0.71,0.3-1.73,0-2.03-0.71c-0.2-0.41-0.2-0.81-0.1-1.12c0.3-0.81,1.12-1.22,1.93-1.02c0.81,0.3,1.22,1.22,0.91,1.93  C30.06,42.64,29.75,42.94,29.45,43.15L29.45,43.15z M14.81,38.57v-3.56c1.52,1.32,3.56,2.13,5.69,2.24v5.39  c-1.02,0.3-1.93,1.02-2.34,2.13c-0.2,0.81-0.2,1.73,0.2,2.54c0.81,1.63,2.74,2.34,4.37,1.52c0.81-0.41,1.42-1.12,1.73-1.93  c0.61-1.73-0.3-3.56-2.03-4.17c-0.1,0-0.2-0.1-0.2-0.1v-5.39c2.13-0.2,4.06-1.02,5.69-2.24v3.56c-1.02,0.3-1.93,1.02-2.34,2.13  c-0.2,0.81-0.2,1.73,0.2,2.54c0.81,1.63,2.74,2.34,4.37,1.52c0.81-0.41,1.42-1.12,1.73-1.93c0.61-1.73-0.3-3.56-2.03-4.17  c-0.1,0-0.2-0.1-0.2-0.1v-5.39c1.32-1.73,2.13-3.96,2.13-6.4c0-0.61,0-1.32-0.1-1.93c5.39-0.2,7.62-6.91,3.56-10.47H64.5  c1.42,0,2.95,0.91,2.95,2.44v33.33H5.97V23.94c1.02,0.61,2.13,0.91,3.45,0.91h1.52c-0.1,0.61-0.2,1.32-0.2,1.93  c0,2.44,0.91,4.78,2.34,6.61v5.18c-0.1,0-0.2,0.1-0.3,0.1c-1.63,0.61-2.54,2.44-1.93,4.17c0.2,0.81,0.81,1.52,1.63,1.93  c1.63,0.81,3.66,0.1,4.37-1.52c0.41-0.81,0.51-1.73,0.2-2.54C16.64,39.59,15.83,38.88,14.81,38.57L14.81,38.57z M13.29,43.15  c-0.41-0.2-0.71-0.51-0.81-0.91c-0.3-0.71,0.2-1.63,0.91-1.93c0.81-0.2,1.73,0.2,1.93,1.02c0.1,0.3,0.1,0.71,0,1.12  C14.91,43.15,13.9,43.45,13.29,43.15L13.29,43.15z M46.11,22.52c4.47-0.2,8.23,3.25,8.33,7.72c0.1,1.22,1.83,1.12,1.83,0  c-0.2-5.49-4.78-9.76-10.16-9.55C44.89,20.69,44.99,22.52,46.11,22.52L46.11,22.52z"/><text x="0" y="87" fill="#000000" font-size="5px" font-weight="bold" font-family="'Helvetica Neue', Helvetica, Arial-Unicode, Arial, Sans-serif">Created by Dan's</text><text x="0" y="92" fill="#000000" font-size="5px" font-weight="bold" font-family="'Helvetica Neue', Helvetica, Arial-Unicode, Arial, Sans-serif">from the Noun Project</text></svg>