<?xml version="1.0" encoding="utf-8"?>
<svg viewBox="315.865 61.517 106.532 106.722" xmlns="http://www.w3.org/2000/svg">
  <defs/>
  <g id="Layer_2" data-name="Layer 2" transform="matrix(1, 0, 0, 1, 62.117344, 60.747803)">
    <g id="Layer_1-2" data-name="Layer 1">
      <path class="cls-1" d="M343.19,58.28l-10-4.51-10,4.51-4.16,6.06.14,14.9a78.3,78.3,0,0,1,8.76,0l.14-10.14h10.2V79.58c1.36.15,6.9,1.39,8.91,1.75l.13-17Zm-6,7.16h-7.84V58.76h7.84Z" style="fill: rgb(3, 82, 147);"/>
      <path class="cls-1" d="M301.31,84.67c9.83,4.51,21.78,8.8,33.47,10.52,6.28-4.17,12.49-10.1,16-16.62-17-2.72-34.85-2-49.43,6.1" style="fill: rgb(3, 82, 147);"/>
      <path class="cls-1" d="M333,65.76h0c0,.14,0,.28-.07.41C332.93,66,333,65.89,333,65.76Z" style="fill: rgb(3, 82, 147);"/>
      <path class="cls-1" d="M331.2,70.34h0c0,.13,0,.27-.07.4,0-.13.06-.27.08-.4" style="fill: rgb(3, 82, 147);"/>
      <path class="cls-1" d="M299.45,60.32c-2.73,1.29-5.55,5.38-5.55,5.38s.23-2.8.33-4.47,1.82-11.42,5.69-18.12c-3.87,1.81-9.08,13.19-9.77,18.08-2.27-2.57-7.5-4.43-7.5-4.43s6.36,4.37,6.14,16c-.13,6.48-1.18,10.31-2.07,12.44a29.11,29.11,0,0,0,7.5,1c1.28,0,2.44,1.57,3.68,1.41-7.46-17.42,0-24.49,1.55-27.24" style="fill: rgb(3, 82, 147);"/>
      <path class="cls-2" d="M315.93,38.31c8.25,3-1.86,12.53-6.23,6.58a.47.47,0,0,1-.1.1l0-.06-.07.06V44.9l-.1,0,0-.1h-.07l0-.07-.07,0a.52.52,0,0,1,.1-.11c-6.56-3.58,2.18-15.17,6.29-6.79.89-.77.71-2.48.11-3.37-.19-.29-.32-.57.06-.79s.76,0,1,.45c.59,1-.48,3.32-1,4.17" style="fill: rgb(3, 82, 147); fill-rule: evenodd;"/>
      <path class="cls-2" d="M278.15,49.08c8,3.65-2.81,12.34-6.71,6.07a.31.31,0,0,1-.11.09l0-.06-.08,0,0-.08-.11,0,0-.1h-.08l.05-.06-.06,0a.36.36,0,0,1,.11-.1c-6.27-4.07,3.33-15,6.79-6.28.94-.71.89-2.42.37-3.36-.17-.3-.28-.59.11-.78s.76.08,1,.53c.51,1.06-.74,3.27-1.29,4.09" style="fill: rgb(3, 82, 147); fill-rule: evenodd;"/>
      <path class="cls-2" d="M294.34,26c-4-7.82-12.2,3.38-5.75,7a.31.31,0,0,0-.09.11l.06,0-.05.08.09,0,0,.11.1,0v.08l.06,0,0,.06a.52.52,0,0,0,.1-.11c4.36,6.07,14.78-4,6-7.08.66-1,2.37-1,3.33-.52.31.15.6.25.77-.16s-.11-.75-.56-.94c-1.09-.46-3.24.88-4,1.47" style="fill: rgb(3, 82, 147); fill-rule: evenodd;"/>
      <path class="cls-2" d="M304.06,54.91c-8.1,3.4,2.42,12.43,6.52,6.29a.47.47,0,0,0,.1.1l0-.07.07.06V61.2l.11,0,0-.11h.08l0-.06.06,0a.52.52,0,0,0-.11-.1c6.4-3.87-2.86-15.06-6.59-6.5-.92-.73-.81-2.45-.26-3.37.18-.29.3-.58-.09-.78a.81.81,0,0,0-1,.49c-.54,1,.63,3.3,1.15,4.13" style="fill: rgb(3, 82, 147); fill-rule: evenodd;"/>
      <path class="cls-2" d="M275.7,28.53c4.55-7.53,11.95,4.2,5.28,7.36a.44.44,0,0,1,.08.11L281,36l.05.08-.09,0v.11l-.1,0v.08l-.06-.06,0,.06a.54.54,0,0,1-.09-.12c-4.76,5.76-14.48-5-5.47-7.46-.59-1-2.3-1.17-3.29-.75-.32.13-.62.21-.76-.21s.16-.74.63-.9c1.11-.39,3.16,1.1,3.91,1.74" style="fill: rgb(3, 82, 147); fill-rule: evenodd;"/>
      <path class="cls-1" d="M302.17,41.61a3.75,3.75,0,0,0,2.64-1.48c.93-1.27,1.09-3.15.47-5.6l-.07-.29-.27.14c-.13.07-3.22,1.71-3.76,4.14a3.56,3.56,0,0,0,.78,3l.08.1Z" style="fill: rgb(3, 82, 147);"/>
      <path class="cls-1" d="M307.12,31.93a3.83,3.83,0,0,0,3,.38c1.5-.46,2.75-1.88,3.71-4.23l.11-.27-.3,0c-.14,0-3.61-.54-5.48,1.1A3.51,3.51,0,0,0,307,31.73v.13Z" style="fill: rgb(3, 82, 147);"/>
      <path class="cls-1" d="M302.4,31.06a3.77,3.77,0,0,0,2.53-1.66c.85-1.33.88-3.22.09-5.62l-.09-.29-.26.16c-.13.08-3.1,1.93-3.46,4.39a3.5,3.5,0,0,0,1,2.94l.08.09Z" style="fill: rgb(3, 82, 147);"/>
      <path class="cls-1" d="M289.72,50.73a3.8,3.8,0,0,0,2.64-1.48c.94-1.27,1.09-3.15.47-5.6l-.07-.29-.27.14c-.13.06-3.22,1.71-3.75,4.14a3.51,3.51,0,0,0,.78,3l.07.1Z" style="fill: rgb(3, 82, 147);"/>
      <path class="cls-1" d="M300,48.12a3.75,3.75,0,0,0,3,.47c1.51-.43,2.8-1.81,3.82-4.13l.12-.27-.3-.06c-.14,0-3.59-.63-5.51,1a3.52,3.52,0,0,0-1.23,2.84v.12Z" style="fill: rgb(3, 82, 147);"/>
      <path class="cls-1" d="M310.31,48.68a3.78,3.78,0,0,0,1.41,2.69c1.23,1,3.11,1.18,5.58.63l.29-.06-.13-.28c-.06-.13-1.62-3.27-4-3.87a3.56,3.56,0,0,0-3,.69l-.1.08Z" style="fill: rgb(3, 82, 147);"/>
      <path class="cls-1" d="M297.21,58.94a3.79,3.79,0,0,0,2.64-1.49c.94-1.26,1.09-3.14.47-5.59l-.07-.3-.27.14c-.13.07-3.22,1.72-3.75,4.15a3.48,3.48,0,0,0,.78,3l.07.1Z" style="fill: rgb(3, 82, 147);"/>
      <path class="cls-1" d="M277.39,42.38a3.81,3.81,0,0,0-1.21-2.78c-1.16-1.05-3-1.41-5.52-1l-.3,0,.11.28c.06.14,1.38,3.38,3.74,4.16a3.52,3.52,0,0,0,3.06-.46l.11-.07Z" style="fill: rgb(3, 82, 147);"/>
      <path class="cls-1" d="M286.15,24.42A3.78,3.78,0,0,0,285,21.61c-1.13-1.08-3-1.47-5.49-1.16l-.3,0,.1.28c.06.14,1.3,3.41,3.65,4.24A3.53,3.53,0,0,0,286,24.6l.11-.06Z" style="fill: rgb(3, 82, 147);"/>
      <path class="cls-1" d="M271.53,43.67a3.78,3.78,0,0,0-1.95-2.33c-1.42-.68-3.29-.48-5.59.58l-.27.13.19.24c.09.11,2.28,2.84,4.77,2.92a3.52,3.52,0,0,0,2.79-1.33l.09-.09Z" style="fill: rgb(3, 82, 147);"/>
      <path class="cls-1" d="M270.1,36.36a3.82,3.82,0,0,0-.12-3c-.7-1.4-2.31-2.4-4.77-3l-.29-.07v.3c0,.15.06,3.65,2,5.23a3.49,3.49,0,0,0,3,.67l.12,0Z" style="fill: rgb(3, 82, 147);"/>
      <path class="cls-1" d="M292.73,40.22a3.77,3.77,0,0,0,3,.46c1.51-.42,2.79-1.8,3.82-4.12l.12-.27-.3-.06c-.15,0-3.59-.63-5.51,1A3.54,3.54,0,0,0,292.63,40v.13Z" style="fill: rgb(3, 82, 147);"/>
      <path class="cls-1" d="M290.67,41.25a3.82,3.82,0,0,0-.12-3c-.7-1.4-2.3-2.4-4.77-3l-.29-.07v.3c0,.15.06,3.65,2,5.23a3.49,3.49,0,0,0,3,.67l.13,0Z" style="fill: rgb(3, 82, 147);"/>
      <path class="cls-1" d="M288.56,56.56a3.75,3.75,0,0,0,.23-3c-.53-1.48-2-2.65-4.39-3.5l-.29-.1,0,.3c0,.15-.36,3.63,1.37,5.43a3.54,3.54,0,0,0,2.92,1h.13Z" style="fill: rgb(3, 82, 147);"/>
      <path class="cls-1" d="M286.5,46.9a3.74,3.74,0,0,0-.12-3c-.7-1.4-2.3-2.4-4.77-3l-.29-.06v.3c0,.15.06,3.65,2,5.23a3.54,3.54,0,0,0,3,.67l.12,0Z" style="fill: rgb(3, 82, 147);"/>
      <path class="cls-1" d="M294.8,22.58a3.77,3.77,0,0,0,3,.07c1.45-.62,2.54-2.16,3.25-4.58l.09-.29-.3,0c-.15,0-3.65-.16-5.35,1.66a3.55,3.55,0,0,0-.85,3l0,.12Z" style="fill: rgb(3, 82, 147);"/>
      <polygon class="cls-2" points="333.43 48.78 346 54.47 351.45 62.42 348.28 62.42 344.26 56.55 333.43 51.65 322.6 56.55 318.57 62.42 315.4 62.42 320.86 54.47 333.43 48.78" style="fill: rgb(3, 82, 147); fill-rule: evenodd;"/>
      <rect class="cls-1" x="330.73" y="60.36" width="4.97" height="3.87" style="fill: rgb(3, 82, 147);"/>
      <path class="cls-1" d="M330.51,96.2h0c-25.91-2.79-47.56-20.12-67-23h0l-.1,0h-.11c-.65-.08-1.66-.18-2.31-.23,6.42,18.15,24.72,31.27,45.8,31.27a46.77,46.77,0,0,0,26.44-7.64C332.34,96.5,332.2,96.49,330.51,96.2Z" style="fill: rgb(3, 82, 147);"/>
      <path class="cls-1" d="M307,.77a53.32,53.32,0,1,0,53.31,53.32A53.32,53.32,0,0,0,307,.77Zm0,101.8a48.48,48.48,0,1,1,48.48-48.48A48.54,48.54,0,0,1,307,102.57Z" style="fill: rgb(3, 82, 147);"/>
    </g>
  </g>
</svg>