<svg xmlns="http://www.w3.org/2000/svg" version="1.1" viewBox="-5.0 -10.0 110.0 135.0">
 <g>
  <path d="m88.012 29.828c-2.418-1.1602-4.8398-2.3164-7.2578-3.4766-5.9219-2.8359-11.844-5.6719-17.766-8.5156-3.8672-1.8594-7.7305-3.7188-11.59-5.5938-1.0586-0.51563-2.0859-0.51953-3.1445-0.007813-6.6758 3.2461-13.359 6.4844-20.039 9.7227-5.293 2.5625-10.59 5.1172-15.887 7.6719-0.61719 0.29688-1.1641 0.66797-1.4414 1.332-0.4375 1.043-0.066407 2.125 0.97656 2.7188 0.73047 0.41797 1.4961 0.77734 2.2383 1.1758 4.0938 2.2031 8.1836 4.4141 12.285 6.6016 0.45312 0.24219 0.58594 0.51562 0.57812 1.0156-0.03125 2.5898 0.0625 5.1875-0.046875 7.7734-0.09375 2.2344 0.78516 3.957 2.3164 5.4492 1.5742 1.5312 3.4336 2.6367 5.3984 3.5781 3.4844 1.668 7.1836 2.5664 11.004 3.0312 4.9453 0.60156 9.8164 0.21094 14.605-1.1289 3.1953-0.89453 6.1875-2.2344 8.8711-4.2188 1.1641-0.85938 2.1914-1.8516 3-3.0586 0.58984-0.88281 0.88281-1.8438 0.87891-2.9102-0.015626-2.8711-0.011719-5.7422-0.03125-8.6172-0.003907-0.33984 0.089843-0.53516 0.39453-0.69141 1.4297-0.73438 2.8477-1.4922 4.2695-2.2383 0.078125-0.042968 0.16406-0.066406 0.30859-0.125v0.50391c0 4.4492-0.003906 8.8984 0.003906 13.348 0 0.30469-0.0625 0.49219-0.35156 0.67188-2.4688 1.5195-2.5117 4.6953-0.10156 6.3047 0.10156 0.066407 0.19531 0.14453 0.26953 0.19922-0.42969 0.35547-0.89062 0.66016-1.2656 1.0508-0.74219 0.77734-1.0781 1.7656-1.0859 2.8203-0.027344 3.4648-0.035156 6.9297 0 10.395 0.019531 2.1602 1.5977 3.8008 3.7188 3.9844 2.0312 0.17578 3.8438-1.1523 4.2578-3.1523 0.074219-0.36328 0.089844-0.74219 0.089844-1.1172 0.003906-3.3242 0.007812-6.6484-0.003906-9.9727-0.007813-1.7969-0.64062-2.8477-2.3555-3.9414 0.15625-0.10547 0.29297-0.19141 0.42578-0.28125 2.375-1.582 2.2578-4.918-0.24219-6.2969-0.35547-0.19531-0.43359-0.41016-0.43359-0.76562 0-5.0586-0.003906-10.113-0.023437-15.172 0-0.28906 0.12109-0.40625 0.35156-0.52344 2.2773-1.168 4.5469-2.3477 6.8242-3.5117 0.8125-0.41406 1.2734-1.0508 1.2773-1.9648 0.003907-0.94141-0.41797-1.6445-1.2812-2.0586zm-18.637 22.66c-0.29688 0.33984-0.60156 0.67969-0.93359 0.98438-2.5 2.3008-5.4766 3.7344-8.6992 4.6875-4.375 1.293-8.8477 1.6836-13.383 1.2031-3.3828-0.35938-6.6758-1.1016-9.7812-2.5312-2.1094-0.96875-4.0898-2.1406-5.707-3.8477-0.67578-0.71094-1.0391-1.5078-1.0156-2.5195 0.046875-2.168 0.015625-4.3398 0.015625-6.5078v-0.50781c0.17188 0.070312 0.28906 0.10547 0.39062 0.16406 1.8594 1.0195 3.7188 2.043 5.582 3.0586 4.0117 2.1875 8.0352 4.3594 12.039 6.5664 1.3906 0.76562 2.6992 0.72656 4.0859-0.03125 4.9727-2.707 9.9688-5.3789 14.953-8.0586 1.0117-0.54688 2.0273-1.0898 3.1328-1.6836 0 2.4531-0.007813 4.793 0.003906 7.1328 0.003906 0.72656-0.21875 1.3516-0.6875 1.8867zm10.66 23.039c-0.80859 0.50781-1.7109-0.066406-1.7148-1.1289-0.015624-3.3359-0.007812-6.6719 0.003907-10.008 0.003906-0.80078 0.47656-1.2969 1.168-1.2891 0.69141 0.007813 1.0703 0.45703 1.0703 1.2969 0.003906 1.6523 0 3.3047 0 4.957h0.003906c0 1.6836-0.003906 3.3672 0.003906 5.0508 0 0.46484-0.12109 0.86328-0.53516 1.1211zm-1.4141-18.48c-0.011719-0.47266 0.35938-0.84375 0.85156-0.85547 0.47656-0.011718 0.86328 0.33594 0.87109 0.77344 0.003906 0.45312-0.39062 0.85938-0.85547 0.87109-0.46094 0.011718-0.85547-0.34766-0.86328-0.78906zm6.2305-25.062c-2.1016 1.0977-4.1992 2.2031-6.3047 3.2891-0.16406 0.082031-0.39062 0.09375-0.57812 0.0625-3.1836-0.51172-6.3672-1.0312-9.5508-1.5586-3.6602-0.60938-7.3164-1.2227-10.977-1.8359-1.0898-0.18359-2.1758-0.36719-3.2539-0.55078-0.023438-0.082031-0.046875-0.125-0.046875-0.16797-0.14062-2.5742-2.3398-4.2109-4.8789-3.9766-2.5273 0.23438-4.2383 2.8203-3.457 5.2109 0.83203 2.543 4.1172 3.5273 6.4414 1.9492 0.20703-0.14062 0.51953-0.22266 0.76172-0.19141 1.1875 0.16406 2.3711 0.37891 3.5547 0.57812 5 0.83203 10 1.6641 14.996 2.4961 0.83984 0.14063 1.6758 0.28516 2.6406 0.44922-0.29297 0.16797-0.46094 0.26953-0.63672 0.36328-2.207 1.1641-4.4219 2.3164-6.6211 3.4961-5.4336 2.9062-10.863 5.8164-16.281 8.75-0.60547 0.32812-1.0742 0.32422-1.6758-0.007812-4.2578-2.3555-8.5352-4.6758-12.812-7-6.6445-3.6133-13.293-7.2227-19.941-10.828-0.39062-0.21094-0.78516-0.42578-1.2578-0.67969 0.62109-0.30469 1.1602-0.57031 1.7031-0.83203 8.0469-3.8867 16.098-7.7734 24.145-11.664 2.8086-1.3555 5.6211-2.7109 8.4219-4.0781 0.41406-0.20312 0.76562-0.23047 1.1875-0.015624 0.92969 0.47656 1.8867 0.89844 2.8281 1.3516 9.832 4.7109 19.664 9.4219 29.496 14.137 0.75391 0.35938 1.5039 0.73047 2.3047 1.1172-0.11719 0.078125-0.16406 0.11719-0.21484 0.14453zm-33.797-0.77734c-0.003907 0.56641-0.55078 1.0234-1.2227 1.0234-0.70312 0-1.2227-0.39844-1.2305-0.94141-0.007812-0.61328 0.5625-1.1289 1.25-1.1211 0.6875 0.007812 1.207 0.45703 1.207 1.0391z"/>
  <path d="m62.195 73.008c-4.457-1.0586-8.9102-2.1484-13.363-3.2227-0.26562-0.0625-0.48438-0.10156-0.50781-0.46875-0.23828-3.5508-3.918-4.793-6.4688-3.4922-0.45312 0.23047-0.86719 0.54688-1.3555 0.85547-0.96094-0.62891-1.9805-1.2852-2.9844-1.9609-3.2109-2.1562-6.4258-4.3086-9.625-6.4844-1.1094-0.75781-2.2344-0.80078-3.4023-0.22656-2.0352 0.99219-3.332 2.6797-4.2891 4.6641-0.73438 1.5312-1.2109 3.1445-1.2227 4.8594-0.011718 1.5938 0.61719 2.4453 2.125 2.9648 5.2773 1.8203 10.555 3.6445 15.832 5.4688 0.027344 0.007812 0.046875 0.035156 0.10938 0.082031-0.98828 0.66406-2.0391 1.0312-3.1523 1.2344-1.5078 0.27344-2.9336 0.75-4.1445 1.7266-0.24219 0.19531-0.47266 0.41406-0.66016 0.65625-0.46094 0.60156-0.41406 1.2812 0.097656 1.8281 0.51562 0.54687 1.2969 0.70312 1.8555 0.20312 1.293-1.1562 2.875-1.4727 4.4844-1.8281 0.83984-0.18359 1.6289-0.59766 2.4375-0.91406 0.13672-0.050781 0.25781-0.13281 0.38672-0.19922 0.03125 0.042969 0.0625 0.089844 0.09375 0.13281-0.63672 0.50781-1.2344 1.0859-1.9258 1.5039-0.91797 0.55078-1.9062 0.98828-2.875 1.4531-0.55469 0.26562-1.1172 0.49219-1.2578 1.1992-0.11719 0.60547 0.019532 1.125 0.49609 1.5156 0.49609 0.41016 1.0703 0.55469 1.6562 0.23828 1.3047-0.69922 2.5938-1.4258 3.8867-2.1484 0.18359-0.10156 0.34766-0.23828 0.51172-0.35156-0.32031 1.168-0.64062 2.3164-0.95312 3.4688-0.058594 0.22656-0.082031 0.46094-0.11328 0.69141-0.11328 0.88281 0.375 1.5352 1.2461 1.6758 0.78906 0.125 1.4688-0.34766 1.6094-1.2031 0.41797-2.5625 1.4258-4.9023 2.6445-7.1641 0.035156-0.066406 0.082031-0.12891 0.15625-0.24219 0.36719 0.21484 0.72656 0.41797 1.082 0.63281 3.9727 2.3867 7.9531 4.7539 11.91 7.168 1.2383 0.75781 2.3789 0.75781 3.5898-0.007813 3.6133-2.293 5.7188-7.6484 4.6133-11.781-0.35938-1.3359-1.1484-2.1953-2.5312-2.5234zm-25.156-0.11719c-0.035156-0.011719-0.14062-0.03125-0.24219-0.066406-4.875-1.6875-9.75-3.375-14.629-5.0547-0.25-0.085937-0.32422-0.22656-0.26953-0.44531 0.24609-1.0117 0.40625-2.0547 0.77734-3.0195 0.58594-1.5352 1.5586-2.7969 3.0547-3.5898 0.25391-0.13281 0.45312-0.125 0.6875 0.039062 0.61328 0.42578 1.2422 0.83203 1.8672 1.2461 0.65625 0.43359 1.3164 0.87109 1.9766 1.3047-0.23828-0.035157-0.44141-0.13672-0.64062-0.23438-0.73828-0.36719-1.4688-0.75781-2.2188-1.1016-0.67188-0.30859-1.2656-0.078125-1.457 0.51953-0.16406 0.50391 0.0625 0.88672 0.75 1.2109 3.0859 1.4609 6.1719 2.9219 9.2617 4.375 0.86719 0.41016 1.7461 0.80469 2.5391 1.1719-0.48828 1.2305-0.95703 2.4102-1.4492 3.6445zm4.1484 2.9531c-0.46094-0.058594-0.89062-0.10938-1.3945-0.17188-0.066407-2.5117 0.65625-4.6836 2.4336-6.4375 0.36719-0.36328 0.84766-0.63281 1.3164-0.86719 0.51562-0.26563 1.0508-0.19141 1.5664 0.16016-2.6406 1.7305-3.6172 4.3398-3.9219 7.3203zm14.637 7.5781c-0.11328-0.050781-0.17188-0.070313-0.22266-0.10156-1.125-0.67187-2.2461-1.3477-3.3711-2.0195-2.6094-1.5625-5.2188-3.1211-7.8242-4.6914-0.14062-0.085937-0.32422-0.26172-0.32422-0.39844-0.003906-1.3672 0.35547-2.6367 1.1172-3.8125 0.99609 0.46875 1.9453 0.93359 2.9102 1.3672 0.97656 0.4375 1.4336 0.24219 1.8555-0.77734 3.1289 0.75391 6.2695 1.5078 9.4766 2.2812-2.2383 2.3008-3.3516 5.0312-3.6211 8.1523zm2.9492 1.1133c-0.40625-2.3555 1.4297-6.625 3.2344-7.5078 0.62109 2.2539-1.25 6.5977-3.2344 7.5078z"/>
 </g>
<text x="0.0" y="117.5" font-size="5.0" font-weight="bold" font-family="Arbeit Regular, Helvetica, Arial-Unicode, Arial, Sans-serif" fill="#000000">Created by Bayu Purnama Jatnika</text><text x="0.0" y="122.5" font-size="5.0" font-weight="bold" font-family="Arbeit Regular, Helvetica, Arial-Unicode, Arial, Sans-serif" fill="#000000">from Noun Project</text></svg>