<svg xmlns="http://www.w3.org/2000/svg" version="1.1" viewBox="-5.0 -10.0 110.0 135.0">
 <path d="m77.277 36.551-0.19141-1.168h-0.61328l-0.20312 1.2344c-0.074219 0.45703-0.42578 0.82031-0.87891 0.90625-0.94141 0.18359-1.8359 0.55469-2.6328 1.0898-0.39453 0.26562-0.91406 0.24609-1.293-0.042969l-0.98438-0.70703-0.43359 0.43359 0.73047 1.0156c0.26953 0.375 0.27734 0.87891 0.019531 1.2617-0.26562 0.39844-0.49219 0.82422-0.67578 1.2656s-0.32031 0.89844-0.41016 1.3672c-0.09375 0.48047-0.49219 0.84375-0.97656 0.89062l-1.168 0.19141v0.61328l1.2344 0.20312c0.45703 0.074219 0.81641 0.42578 0.90625 0.87891 0.18359 0.94141 0.55469 1.8359 1.0898 2.6328 0.26562 0.39453 0.24609 0.91797-0.042969 1.293l-0.70703 0.98438 0.43359 0.43359 1.0156-0.73047c0.375-0.26953 0.87891-0.27734 1.2617-0.019531 0.39844 0.26562 0.82031 0.49219 1.2656 0.67578 0.44141 0.18359 0.89844 0.32031 1.3672 0.41406 0.48047 0.09375 0.83984 0.48828 0.89062 0.97266l0.19141 1.168h0.61328l0.20312-1.2344v0.003906c0.074219-0.45703 0.42578-0.82031 0.87891-0.91016 0.94141-0.17969 1.8359-0.55078 2.6328-1.0898 0.39453-0.26562 0.91797-0.24609 1.293 0.046875l0.98438 0.70703 0.43359-0.43359-0.73047-1.0156c-0.26953-0.37891-0.27734-0.87891-0.019531-1.2656 0.53516-0.79297 0.90625-1.6875 1.0859-2.6328 0.097656-0.47656 0.49219-0.83984 0.97656-0.88672l1.168-0.19141v-0.61328l-1.2344-0.20312h0.003907c-0.45703-0.074219-0.82031-0.42578-0.91016-0.87891-0.089843-0.46875-0.22656-0.92969-0.41016-1.3711s-0.41016-0.86328-0.67969-1.2617c-0.26562-0.39453-0.24609-0.91797 0.046875-1.293l0.70703-0.98438-0.43359-0.43359-1.0156 0.73047h-0.003906c-0.375 0.26953-0.87891 0.27734-1.2617 0.019532-0.39844-0.26563-0.82031-0.49609-1.2617-0.67578-0.44141-0.18359-0.90234-0.32031-1.3711-0.41406-0.47656-0.09375-0.83984-0.48828-0.89062-0.97656zm-7.918 44.703c0.59766 0.019532 1.0742 0.51172 1.0742 1.1094 0 0.60156-0.47656 1.0938-1.0742 1.1133h-2.2031c-0.59766-0.019531-1.0742-0.51172-1.0742-1.1133 0-0.59766 0.47656-1.0898 1.0742-1.1094zm-6.7227 0c0.60156 0.019532 1.0781 0.51172 1.0781 1.1094 0 0.60156-0.47656 1.0938-1.0781 1.1133h-2.1992c-0.30078 0.007813-0.58984-0.10547-0.80469-0.31641-0.21875-0.20703-0.33984-0.49609-0.33984-0.79688s0.12109-0.58594 0.33984-0.79688c0.21484-0.20703 0.50391-0.32031 0.80469-0.3125zm1.1523-3.3477c-0.007812-0.30078 0.10547-0.59375 0.3125-0.80859 0.21094-0.21484 0.49609-0.33594 0.79688-0.33594 0.30078 0 0.58984 0.12109 0.79687 0.33594 0.21094 0.21484 0.32422 0.50781 0.3125 0.80859v2.1992c0.011719 0.30078-0.10156 0.58984-0.3125 0.80859-0.20703 0.21484-0.49609 0.33594-0.79687 0.33594-0.30078 0-0.58594-0.12109-0.79688-0.33594-0.20703-0.21875-0.32031-0.50781-0.3125-0.80859zm0 6.7227c-0.007812-0.30078 0.10547-0.59375 0.3125-0.80859 0.21094-0.21484 0.49609-0.33594 0.79688-0.33594 0.30078 0 0.58984 0.12109 0.79687 0.33594 0.21094 0.21484 0.32422 0.50781 0.3125 0.80859v2.1992-0.003906c-0.015624 0.60156-0.50781 1.0781-1.1094 1.0781-0.59766 0-1.0898-0.47656-1.1094-1.0781zm-51.129-49.312c0.61719 0 1.1133 0.5 1.1133 1.1133 0 0.61328-0.49609 1.1094-1.1133 1.1094h-2.1953c-0.61328 0-1.1133-0.49609-1.1133-1.1094 0-0.61328 0.5-1.1133 1.1133-1.1133zm-6.7227 0h0.003906c0.61328 0 1.1094 0.5 1.1094 1.1133 0 0.61328-0.49609 1.1094-1.1094 1.1094h-2.1992c-0.61328 0-1.1094-0.49609-1.1094-1.1094 0-0.61328 0.49609-1.1133 1.1094-1.1133zm1.1523-3.3477c0-0.61328 0.5-1.1094 1.1133-1.1094s1.1094 0.49609 1.1094 1.1094v2.1992c0 0.61328-0.49609 1.1094-1.1094 1.1094s-1.1133-0.49609-1.1133-1.1094zm0 6.7227c0-0.61328 0.5-1.1133 1.1133-1.1133s1.1094 0.5 1.1094 1.1133v2.1992-0.003906c0 0.61328-0.49609 1.1133-1.1094 1.1133s-1.1133-0.5-1.1133-1.1133zm61.93-22.586c0.59766 0.019531 1.0742 0.51172 1.0742 1.1094 0 0.60156-0.47656 1.0938-1.0742 1.1094h-2.1992c-0.30078 0.011719-0.59375-0.10156-0.80859-0.3125-0.21484-0.20703-0.33594-0.49609-0.33594-0.79688 0-0.30078 0.12109-0.58594 0.33594-0.79688 0.21484-0.21094 0.50781-0.32031 0.80859-0.3125zm-6.7227 0c0.30078-0.007813 0.58984 0.10156 0.80469 0.3125 0.21875 0.21094 0.33984 0.49609 0.33984 0.79688 0 0.30078-0.12109 0.58984-0.33984 0.79688-0.21484 0.21094-0.50391 0.32422-0.80469 0.3125h-2.1992c-0.30078 0.011719-0.58984-0.10156-0.80859-0.3125-0.21484-0.20703-0.33594-0.49609-0.33594-0.79688 0-0.30078 0.12109-0.58594 0.33594-0.79688 0.21875-0.21094 0.50781-0.32031 0.80859-0.3125zm1.1523-3.3516c0.015625-0.59766 0.50781-1.0742 1.1094-1.0742 0.59766 0 1.0898 0.47656 1.1094 1.0742v2.1953c-0.019531 0.59766-0.51172 1.0742-1.1094 1.0742-0.60156 0-1.0938-0.47656-1.1094-1.0742v-2.1992zm0 6.7227c0.015625-0.59766 0.50781-1.0742 1.1094-1.0742 0.59766 0 1.0898 0.47656 1.1094 1.0742v2.1992c0.007812 0.30078-0.10547 0.58984-0.3125 0.80469-0.21094 0.21875-0.49609 0.33984-0.79688 0.33984-0.30078 0-0.58984-0.12109-0.79688-0.33984-0.21094-0.21484-0.32422-0.50391-0.3125-0.80469v-2.2031zm23.375 41.879c0.61328 0 1.1094 0.49609 1.1094 1.1094 0 0.61328-0.49609 1.1133-1.1094 1.1133h-2.1992c-0.61328 0-1.1094-0.5-1.1094-1.1133 0-0.61328 0.49609-1.1094 1.1094-1.1094zm-6.7227 0c0.61328 0 1.1094 0.49609 1.1094 1.1094 0 0.61328-0.49609 1.1133-1.1094 1.1133h-2.1992c-0.61328 0-1.1094-0.5-1.1094-1.1133 0-0.61328 0.49609-1.1094 1.1094-1.1094zm1.1523-3.3477c-0.011718-0.30078 0.10156-0.59375 0.3125-0.80859 0.20703-0.21484 0.49609-0.33594 0.79688-0.33594s0.58594 0.12109 0.79688 0.33594c0.20703 0.21484 0.32031 0.50781 0.3125 0.80859v2.1992-0.003906c0.007813 0.30078-0.10547 0.59375-0.3125 0.80859-0.21094 0.21484-0.49609 0.33594-0.79688 0.33594s-0.58984-0.12109-0.79688-0.33594c-0.21094-0.21484-0.32422-0.50781-0.3125-0.80859zm0 6.7227v-0.003907c-0.011718-0.29687 0.10156-0.58984 0.3125-0.80469 0.20703-0.21484 0.49609-0.33984 0.79688-0.33984s0.58594 0.125 0.79688 0.33984c0.20703 0.21484 0.32031 0.50781 0.3125 0.80469v2.1992c0.007813 0.30078-0.10547 0.59375-0.3125 0.80859-0.21094 0.21484-0.49609 0.33594-0.79688 0.33594s-0.58984-0.12109-0.79688-0.33594c-0.21094-0.21484-0.32422-0.50781-0.3125-0.80859v-2.1992zm-69.637-5.0703c-0.30078 0.011719-0.59375-0.10156-0.80859-0.3125-0.21484-0.20703-0.33594-0.49609-0.33594-0.79688s0.12109-0.58594 0.33594-0.79688c0.21484-0.20703 0.50781-0.32031 0.80859-0.3125h8.2383c0.60156 0.019532 1.0781 0.51172 1.0781 1.1094 0 0.60156-0.47656 1.0938-1.0781 1.1094zm0-4.2422v0.003906c-0.30078 0.007813-0.59375-0.10547-0.80859-0.3125-0.21484-0.21094-0.33594-0.49609-0.33594-0.79688s0.12109-0.58984 0.33594-0.79688c0.21484-0.21094 0.50781-0.32422 0.80859-0.31641h4.1211-0.003906c0.30078-0.007813 0.59375 0.10547 0.80859 0.31641 0.21484 0.20703 0.33594 0.49609 0.33594 0.79688s-0.12109 0.58594-0.33594 0.79688c-0.21484 0.20703-0.50781 0.32031-0.80859 0.3125zm16.5 13.605c-0.007813-0.30078 0.10156-0.58984 0.3125-0.80469 0.21094-0.21875 0.49609-0.33984 0.79687-0.33984 0.30078 0 0.58984 0.12109 0.79688 0.33984 0.21094 0.21484 0.32422 0.50391 0.3125 0.80469v11.211c-0.015626 0.59766-0.50781 1.0742-1.1094 1.0742-0.60156 0-1.0898-0.47656-1.1094-1.0742zm-5.4844 2.8359c-0.011718-0.30078 0.10156-0.58984 0.3125-0.80859 0.20703-0.21484 0.49609-0.33594 0.79688-0.33594 0.30078 0 0.58594 0.12109 0.79687 0.33594 0.20703 0.21875 0.32031 0.50781 0.3125 0.80859v8.375c-0.019531 0.59766-0.51172 1.0742-1.1094 1.0742-0.60156 0-1.0938-0.47656-1.1094-1.0742zm-5.4883-1.6367c0-0.61328 0.49609-1.1133 1.1094-1.1133 0.61328 0 1.1133 0.5 1.1133 1.1133v10.012c0 0.61328-0.5 1.1094-1.1133 1.1094-0.61328 0-1.1094-0.49609-1.1094-1.1094zm-5.4844 4.4102c0.019532-0.60156 0.51172-1.0781 1.1094-1.0781 0.60156 0 1.0938 0.47656 1.1094 1.0781v5.6055c-0.015625 0.59766-0.50781 1.0742-1.1094 1.0742-0.59766 0-1.0898-0.47656-1.1094-1.0742zm15.527-11.199 0.30078-0.039063-3.7422 3.7617-3.8516-3.375c-0.40234-0.38281-1.0273-0.41016-1.457-0.0625l-7.6836 6.1602h-0.003906c-0.47266 0.38672-0.54688 1.0781-0.16406 1.5547 0.38281 0.47656 1.0742 0.55078 1.5547 0.17188l6.957-5.5781 3.9766 3.4805h-0.003907c0.44141 0.38672 1.1016 0.36328 1.5156-0.050781l4.3984-4.4336-0.027344 0.19531h-0.003906c-0.085937 0.60547 0.33203 1.168 0.9375 1.2539 0.60938 0.089844 1.168-0.33203 1.2578-0.9375l0.5-3.5039h-0.003907c0.015625-0.097656 0.015625-0.19922 0-0.29688-0.078125-0.60547-0.63281-1.0352-1.2383-0.95703l-3.5078 0.46094c-0.60547 0.082031-1.0352 0.63672-0.95313 1.2422 0.078126 0.60547 0.63281 1.0352 1.2383 0.95312zm61.773-32.625c0.72656-0.72656 1.7891-0.99609 2.7734-0.70312s1.7266 1.1016 1.9336 2.1094c0.21094 1.0039-0.14844 2.043-0.93359 2.7031-0.78906 0.66016-1.8711 0.83594-2.8242 0.45703l-1.5781 1.5859h-0.003906c-0.43359 0.41406-1.1211 0.40625-1.5469-0.019532-0.42969-0.42578-0.4375-1.1133-0.023438-1.5508l1.5859-1.5859c-0.41016-1.0312-0.16406-2.2109 0.62109-2.9961zm1.5664 1.5664c-0.19531 0.19531-0.22656 0.49609-0.074219 0.72656 0.15234 0.22656 0.44141 0.31641 0.69531 0.21094 0.25391-0.10547 0.39453-0.37109 0.34375-0.64062-0.054688-0.26953-0.28906-0.46094-0.5625-0.46094-0.15234 0-0.29688 0.058593-0.40234 0.16406zm-40.59 36.031v2.6836c0.53906-0.027344 1.0625-0.078125 1.5664-0.14453-0.089844-0.23437-0.1875-0.46094-0.28516-0.67187v-0.003907c-0.30078-0.69922-0.73828-1.332-1.2812-1.8633zm0 4.9062v2.6055h2.5469c-0.046875-0.94531-0.16797-1.8906-0.35938-2.8203-0.72656 0.10547-1.457 0.17578-2.1875 0.21094zm0 4.8242v2.6094c0.73047 0.03125 1.4609 0.10547 2.1875 0.21484 0.19141-0.92969 0.3125-1.875 0.35938-2.8203zm0 4.8281v2.6875c0.54297-0.53125 0.98047-1.1641 1.2812-1.8633 0.10156-0.21094 0.19531-0.4375 0.28516-0.67187-0.50781-0.070313-1.0273-0.11719-1.5664-0.14453zm-2.2227 2.6836v-2.6797c-0.53516 0.027344-1.0625 0.078125-1.5664 0.14453 0.089843 0.23438 0.1875 0.46094 0.28516 0.67188v0.003906c0.30078 0.69922 0.73438 1.332 1.2812 1.8633zm0-4.9062v-2.6016h-2.5469c0.046875 0.94531 0.16406 1.8906 0.35547 2.8203 0.72656-0.10938 1.457-0.18359 2.1914-0.21484zm0-4.8242v-2.6055c-0.73438-0.03125-1.4648-0.10156-2.1914-0.21094-0.19141 0.92969-0.30859 1.875-0.35547 2.8242zm0-4.8281v-2.6836c-0.54688 0.53125-0.98047 1.1641-1.2812 1.8633-0.10156 0.21094-0.19531 0.4375-0.28516 0.67188 0.50781 0.070313 1.0312 0.11719 1.5664 0.14453zm-7.9336 4.8281h3.1602c0.050782-1.1016 0.1875-2.1953 0.41406-3.2773-0.70703-0.19141-1.3984-0.4375-2.0664-0.73828-0.81641 1.1992-1.3359 2.5781-1.5117 4.0195zm14.926 0h3.1602c-0.17578-1.4414-0.69531-2.8164-1.5117-4.0156-0.67188 0.29688-1.3594 0.54297-2.0664 0.73828 0.22656 1.0781 0.36328 2.1758 0.41406 3.2773zm3.1562 2.2188h-3.1562v0.003906c-0.050781 1.1016-0.19141 2.1953-0.41406 3.2773 0.70703 0.19141 1.3945 0.4375 2.0625 0.73438 0.82031-1.1992 1.3398-2.5742 1.5117-4.0156zm-14.926 0h-3.1562v0.003906c0.17578 1.4375 0.69531 2.8164 1.5117 4.0156 0.66797-0.29688 1.3594-0.54297 2.0664-0.73828-0.22656-1.0781-0.36328-2.1758-0.41797-3.2773zm-0.089844-7.9883c0.34375 0.12891 0.71484 0.24609 1.1016 0.35156 0.14453-0.41406 0.30469-0.80078 0.47656-1.168 0.0625-0.13281 0.125-0.26172 0.19141-0.39062l0.003906 0.003906c-0.63672 0.32813-1.2305 0.73438-1.7734 1.207zm10.844 0.35156c0.38672-0.10547 0.75391-0.22266 1.1016-0.35156v0.003906c-0.53906-0.46875-1.1328-0.875-1.7656-1.2031 0.066406 0.125 0.12891 0.25781 0.19141 0.39062 0.17188 0.36719 0.33203 0.75781 0.47656 1.168zm1.1016 13.402c-0.34375-0.12891-0.71484-0.24609-1.1016-0.35156-0.14453 0.41406-0.30469 0.80078-0.47656 1.168-0.0625 0.13281-0.125 0.26172-0.19141 0.39062l-0.003907 0.003906c0.63672-0.33203 1.2305-0.73438 1.7734-1.207zm-10.844-0.35156c-0.38672 0.10547-0.75391 0.22266-1.1016 0.35156v0.003906c0.54297 0.47266 1.1367 0.875 1.7734 1.207-0.066406-0.125-0.12891-0.25781-0.19141-0.39062-0.17188-0.36719-0.33203-0.75781-0.47656-1.168zm4.8711-17.855v0.003907c-5.4023 0.003906-10.051 3.8242-11.102 9.125s1.7891 10.605 6.7812 12.672 10.75 0.32031 13.754-4.1758c3-4.4922 2.4102-10.48-1.4102-14.305-2.125-2.125-5.0078-3.3203-8.0117-3.3164zm27.957-26.617c2.6367 0 4.9023 1.8594 5.418 4.4414 0.51563 2.5859-0.86719 5.1719-3.3008 6.1797-2.4336 1.0078-5.2383 0.15625-6.7031-2.0312-1.4648-2.1914-1.1758-5.1094 0.6875-6.9727 1.0312-1.0352 2.4375-1.6172 3.8984-1.6172zm2.332 3.1875c1.1133 1.1133 1.2852 2.8555 0.41016 4.1602-0.875 1.3086-2.5508 1.8164-4.0039 1.2148-1.4492-0.60156-2.2773-2.1445-1.9688-3.6875 0.30469-1.543 1.6602-2.6523 3.2305-2.6523 0.875 0 1.7148 0.34766 2.332 0.96484zm-10.703-1.9922h-3.5156c0.17969 4.9453-1.1523 9.8281-3.8125 14l1.6094 1.6094c0.40234 0.40234 0.4375 1.0469 0.074219 1.4883l13.156 11.227 0.003906-0.003906c0.86719 0.73438 1.3906 1.8008 1.4336 2.9375 0.046875 1.1367-0.39062 2.2383-1.1992 3.0391l-2.2305 2.2305c-0.79688 0.80859-1.9023 1.2461-3.0391 1.1992s-2.2031-0.56641-2.9336-1.4375l-11.227-13.156v-0.003906c-0.44141 0.36328-1.0859 0.32812-1.4883-0.074219l-1.6094-1.6094v0.003906c-2.5352 1.6172-5.3516 2.7539-8.3047 3.3438-2.8203 0.56641-5.7188 0.63281-8.5625 0.19531v18.566c0 1.4062-1.1445 2.5469-2.5508 2.5469h-26.43c-1.4062 0-2.5469-1.1406-2.5469-2.5469v-36.176c0-1.4062 1.1406-2.5469 2.5469-2.5469h8.6484c-1.125-6.8398 0.71484-13.836 5.0547-19.238 4.3398-5.4062 10.777-8.707 17.699-9.0859 6.9219-0.375 13.676 2.2109 18.578 7.1133 0.55078 0.55078 1.0742 1.1289 1.5742 1.7305 0.36328 0.4375 0.71484 0.89844 1.0508 1.375h35.332c0.4375 0 0.85938 0.17578 1.168 0.48438 0.30859 0.30859 0.48047 0.73047 0.48047 1.168v9.9727c0 0.91016-0.73828 1.6484-1.6484 1.6484h-10.566c0.12109 0.23437 0.23438 0.47656 0.33594 0.72266h-0.003906c0.14062 0.33594 0.26172 0.67969 0.35938 1.0273l1.2109 0.19922h0.003906c0.66406 0.10938 1.1523 0.68359 1.1562 1.3594v2.0312c-0.003906 0.67578-0.49219 1.25-1.1562 1.3594l-1.2109 0.19922h-0.003906c-0.097656 0.35156-0.21875 0.69141-0.35938 1.0273-0.13672 0.33984-0.29688 0.66797-0.47656 0.98828l0.71875 1c0.39844 0.54688 0.33984 1.3047-0.14062 1.7812l-1.4375 1.4375v-0.003906c-0.47656 0.48438-1.2344 0.54297-1.7812 0.14453l-1-0.71875c-0.31641 0.17969-0.64844 0.33594-0.98438 0.47656-0.33594 0.14062-0.67969 0.25781-1.0273 0.35937l-0.19922 1.2109c-0.10547 0.66797-0.68359 1.1562-1.3594 1.1602h-2.0312c-0.67578-0.003906-1.25-0.49219-1.3594-1.1602l-0.19922-1.2109c-0.34766-0.10156-0.69141-0.21875-1.0273-0.35937-0.33594-0.14063-0.66797-0.30078-0.98828-0.47656l-1 0.71875h0.003906c-0.54687 0.39844-1.3047 0.33984-1.7812-0.14453l-1.4375-1.4375v0.003906c-0.48047-0.48047-0.53906-1.2344-0.14062-1.7812l0.71875-1h-0.003907c-0.17578-0.32031-0.33594-0.64844-0.47656-0.98828-0.14062-0.33594-0.25781-0.67578-0.35938-1.0273l-1.2109-0.19922c-0.66797-0.10938-1.1562-0.68359-1.1562-1.3594v-2.0352c0-0.67578 0.49219-1.25 1.1562-1.3594l1.2109-0.19922c0.10156-0.34766 0.22266-0.69141 0.35938-1.0273 0.10156-0.24609 0.21484-0.48828 0.33594-0.72266zm17.574-2.2188c-0.035157-0.3125-0.17578-0.60547-0.39453-0.82813l-0.57813-0.57812-0.003906-7.4258h10.145v8.832zm-3.1953-2.6094c-0.15234 0.046876-0.29297 0.11719-0.42188 0.21094l-1 0.71875h0.003907c-0.64063-0.35547-1.3164-0.63672-2.0156-0.83984l-0.19531-1.2188c-0.10938-0.66797-0.68359-1.1562-1.3594-1.1602h-2.0312c-0.67578 0.003906-1.25 0.49219-1.3594 1.1602l-0.19922 1.2109c-0.69922 0.19922-1.3789 0.48047-2.0156 0.83594l-1-0.71875h0.003906c-0.55078-0.39844-1.3086-0.33594-1.7852 0.14453l-1.4375 1.4375c-0.22266 0.21875-0.35938 0.51172-0.39453 0.82422h-25.078v-8.832h40.285zm-46.023 27.57c2.6953 0.46094 5.4531 0.42188 8.1328-0.11719 2.9453-0.58984 5.7422-1.7773 8.2148-3.4883 0.44141-0.33203 1.0625-0.28906 1.4531 0.10547l1.4648 1.4648 4.3047-4.3047-1.4648-1.4648v-0.003907c-0.37891-0.37891-0.4375-0.97656-0.12891-1.418 1.457-2.0977 2.543-4.4336 3.1992-6.9062 0.57031-2.1523 0.81641-4.3789 0.73047-6.6055h-1.8789c0.26563 6.1875-2.3047 12.16-6.9844 16.219-4.6797 4.0586-10.953 5.7617-17.043 4.6211v1.9062zm0-4.1602c2.8164 0.58594 5.7266 0.49609 8.5-0.25781 3.9727-1.0859 7.457-3.4922 9.8789-6.8242 2.418-3.3281 3.6289-7.3867 3.4336-11.5h-16.645c-0.4375 0-0.85156-0.17578-1.1602-0.48438-0.30859-0.30859-0.48438-0.72656-0.48047-1.1641v-9.9727c-0.003906-0.4375 0.17188-0.85938 0.48047-1.168 0.035157-0.03125 0.066407-0.0625 0.10547-0.089844 0.29688-0.25391 0.67578-0.39062 1.0625-0.39062h9.8867c-3.9297-3.1562-8.9961-4.5273-13.98-3.7891-4.9844 0.73438-9.4336 3.5156-12.285 7.668-2.8516 4.1562-3.8438 9.3086-2.7344 14.223h11.387c1.4062 0.003906 2.5469 1.1445 2.5469 2.5508v11.199zm-16.211-13.75c-1.1445-5.7422 0.23828-11.699 3.8008-16.348 3.5625-4.6445 8.957-7.5312 14.801-7.9141 5.8398-0.38281 11.566 1.7695 15.707 5.9102 0.019531 0.019532 0.039063 0.042969 0.058594 0.0625 0.0625 0.0625 0.125 0.125 0.17969 0.18359h2.4961c-0.43359-0.52344-0.90234-1.0352-1.4023-1.5352-4.4844-4.4883-10.68-6.8398-17.012-6.4609-6.3359 0.375-12.203 3.4492-16.125 8.4375-3.918 4.9922-5.5117 11.422-4.3789 17.664zm13.66 2.2188h-26.43c-0.085938 0-0.16797 0.035156-0.23047 0.097656s-0.097656 0.14453-0.097656 0.23047v36.176c0 0.085937 0.035156 0.16797 0.097656 0.23047s0.14453 0.097656 0.23047 0.097656h26.43c0.085937 0 0.16797-0.035156 0.23047-0.097656s0.097656-0.14453 0.097656-0.23047v-36.176c0-0.085938-0.035156-0.16797-0.097656-0.23047s-0.14453-0.097656-0.23047-0.097656zm33.195 25.188 4.4609-4.4609-8.2969-7.0781-3.2422 3.2383zm6.1562-3.0156-4.7109 4.7109 0.78516 0.92188v-0.003906c0.16406 0.19922 0.36719 0.35938 0.59766 0.47656 0.46875 0.21484 1.0078 0.23828 1.4961 0.058594 0.23828-0.097656 0.45312-0.24219 0.63281-0.42578l2.2305-2.2266-0.003906-0.003906c0.55859-0.5625 0.70312-1.4102 0.36719-2.1289-0.11328-0.22656-0.27344-0.42969-0.47266-0.59375zm-14.68-6.9766 2.9922-2.9922-0.67969-0.57812-2.8906 2.8906z" fill-rule="evenodd"/>
<text x="0.0" y="117.5" font-size="5.0" font-weight="bold" font-family="Arbeit Regular, Helvetica, Arial-Unicode, Arial, Sans-serif" fill="#000000">Created by riski nadia</text><text x="0.0" y="122.5" font-size="5.0" font-weight="bold" font-family="Arbeit Regular, Helvetica, Arial-Unicode, Arial, Sans-serif" fill="#000000">from Noun Project</text></svg>